<svg width="286" height="395" viewBox="0 0 286 395" fill="none" xmlns="http://www.w3.org/2000/svg">
<g clip-path="url(#clip0_12_660)">
<path d="M90.711 354.11L102.421 375.01L116.421 388.87C116.66 389.106 116.848 389.389 116.973 389.7C117.098 390.012 117.158 390.346 117.149 390.682C117.139 391.017 117.061 391.348 116.919 391.652C116.776 391.956 116.573 392.228 116.321 392.45C116.028 392.71 115.678 392.895 115.298 392.991C114.919 393.087 114.522 393.09 114.141 393C109.211 391.84 91.141 387.49 90.331 385.91C89.441 384.08 76.521 364.69 76.521 364.69L90.711 354.11Z" fill="#90B2E6"/>
<g opacity="0.6">
<path d="M116.341 392.45L89.531 384.52L90.041 385.39C90.4937 386.151 91.2028 386.725 92.041 387.01C94.251 387.77 100.431 389.75 114.121 393.01C114.514 393.104 114.924 393.099 115.315 392.996C115.706 392.893 116.065 392.695 116.361 392.42L116.341 392.45Z" fill="white"/>
</g>
<g opacity="0.6">
<path d="M89.8311 375.37C90.1954 375.405 90.534 375.573 90.7815 375.843C91.029 376.112 91.1677 376.464 91.1711 376.83C91.148 377.195 90.9859 377.538 90.718 377.787C90.4502 378.036 90.0969 378.173 89.731 378.17C89.3456 378.128 88.9889 377.946 88.7289 377.659C88.4689 377.371 88.3237 376.998 88.321 376.61C88.3851 376.233 88.5927 375.895 88.9003 375.668C89.2079 375.44 89.5917 375.341 89.971 375.39" fill="white"/>
</g>
<path d="M106.311 386.22C106.355 385.266 106.658 384.341 107.186 383.545C107.715 382.749 108.449 382.111 109.311 381.7C109.311 381.64 108.951 381.63 108.421 381.85C107.746 382.156 107.173 382.647 106.767 383.267C106.362 383.887 106.141 384.609 106.131 385.35C106.101 385.96 106.251 386.24 106.311 386.22Z" fill="#263238"/>
<path d="M109.411 388.12C109.561 388.12 109.821 387.12 110.711 386.12C111.601 385.12 112.611 384.82 112.571 384.67C111.712 384.74 110.91 385.131 110.325 385.764C109.739 386.397 109.413 387.228 109.411 388.09V388.12Z" fill="#263238"/>
<path d="M101.481 384.3C102.009 383.202 102.614 382.143 103.291 381.13C104.106 380.228 104.985 379.385 105.921 378.61C104.716 379.038 103.659 379.8 102.872 380.808C102.086 381.816 101.603 383.027 101.481 384.3Z" fill="#263238"/>
<path d="M97.3911 378.25C97.5211 378.34 98.3911 377.19 99.8311 376.25C101.271 375.31 102.671 374.98 102.631 374.83C101.515 374.784 100.419 375.138 99.5411 375.83C98.5648 376.362 97.8045 377.218 97.3911 378.25Z" fill="#263238"/>
<path d="M93.8011 372.2C94.5307 371.381 95.3645 370.662 96.2811 370.06C97.2786 369.605 98.3359 369.295 99.4211 369.14C99.4211 369.07 99.0511 368.95 98.4211 368.95C97.5855 368.977 96.7678 369.199 96.0333 369.598C95.2989 369.998 94.668 370.563 94.1911 371.25C93.8911 371.79 93.7411 372.17 93.8011 372.2Z" fill="#263238"/>
<path d="M95.5711 368.96C95.4826 368.668 95.3326 368.399 95.1311 368.17C94.6442 367.493 94.0251 366.921 93.3111 366.49C92.816 366.127 92.2149 365.937 91.6011 365.95C91.3988 365.975 91.209 366.061 91.0571 366.197C90.9052 366.333 90.7984 366.512 90.751 366.71C90.689 367.099 90.7708 367.497 90.9811 367.83C91.4358 368.497 92.1096 368.985 92.8858 369.207C93.6619 369.43 94.4916 369.375 95.2311 369.05C95.9575 368.717 96.5678 368.175 96.983 367.492C97.3983 366.809 97.5997 366.018 97.5611 365.22C97.5443 365.026 97.4887 364.838 97.3977 364.666C97.3066 364.494 97.182 364.343 97.0311 364.22C96.8556 364.115 96.6523 364.067 96.4485 364.081C96.2447 364.095 96.0502 364.172 95.8911 364.3C95.4522 364.709 95.1282 365.227 94.9511 365.8C94.6548 366.58 94.4991 367.406 94.4911 368.24C94.4639 368.544 94.4979 368.85 94.5911 369.14C94.676 368.045 94.915 366.968 95.3011 365.94C95.4722 365.446 95.7644 365.002 96.1511 364.65C96.236 364.577 96.3416 364.533 96.453 364.524C96.5643 364.516 96.6756 364.542 96.7711 364.6C96.8662 364.691 96.9425 364.799 96.9957 364.919C97.0489 365.039 97.0779 365.169 97.0811 365.3C97.0892 365.988 96.8993 366.664 96.5341 367.247C96.1688 367.831 95.6437 368.297 95.0211 368.59C94.3928 368.863 93.69 368.912 93.0296 368.73C92.3693 368.548 91.7911 368.146 91.3911 367.59C91.2387 367.36 91.1748 367.083 91.2111 366.81C91.2336 366.7 91.2902 366.601 91.3728 366.525C91.4555 366.45 91.5599 366.402 91.6711 366.39C92.1867 366.384 92.6921 366.534 93.1211 366.82C94.0539 367.388 94.8825 368.112 95.5711 368.96Z" fill="#263238"/>
<path d="M65.5911 363.3L60.8911 380.43C60.8911 380.43 76.701 391.02 76.131 394.27L42.5911 386.27L48.9011 359.27L65.5911 363.3Z" fill="#90B2E6"/>
<g opacity="0.6">
<path d="M50.8111 376.49C50.4655 376.514 50.1405 376.663 49.8974 376.91C49.6543 377.157 49.5098 377.484 49.4911 377.83C49.5012 378.177 49.6435 378.507 49.8889 378.752C50.1343 378.998 50.4642 379.14 50.8111 379.15C51.1777 379.128 51.5229 378.97 51.7798 378.708C52.0367 378.446 52.1869 378.097 52.2011 377.73C52.1559 377.369 51.972 377.04 51.6882 376.812C51.4045 376.584 51.0433 376.476 50.6811 376.51" fill="white"/>
</g>
<g opacity="0.6">
<path d="M42.541 386.24L43.281 383.54L75.161 392.25C75.161 392.25 76.501 393.25 76.081 394.25L42.541 386.24Z" fill="white"/>
</g>
<path d="M61.4211 380.39C61.4211 380.55 60.5411 380.39 59.6111 380.76C58.6811 381.13 58.0811 381.68 57.9511 381.58C57.8211 381.48 58.2811 380.58 59.4211 380.21C60.5611 379.84 61.4911 380.25 61.4211 380.39Z" fill="#263238"/>
<path d="M64.591 382.69C64.591 382.85 63.821 382.96 63.091 383.52C62.361 384.08 62.031 384.78 61.871 384.73C61.711 384.68 61.871 383.73 62.741 383.05C63.611 382.37 64.631 382.53 64.591 382.69Z" fill="#263238"/>
<path d="M65.5811 387.38C65.4211 387.38 65.3911 386.5 66.0311 385.71C66.6711 384.92 67.5111 384.71 67.5511 384.89C67.5911 385.07 67.0011 385.41 66.4911 386.07C65.9811 386.73 65.7511 387.4 65.5811 387.38Z" fill="#263238"/>
<path d="M62.0711 376.37C61.9711 376.5 61.2711 376.09 60.3311 375.93C59.3911 375.77 58.6011 375.93 58.5511 375.73C58.5011 375.53 59.3311 375.16 60.4311 375.36C61.5311 375.56 62.1811 376.26 62.0711 376.37Z" fill="#263238"/>
<g opacity="0.3">
<path d="M64.6511 366.7L63.8011 369.75L47.3611 365.65L48.1811 362.09L64.6511 366.7Z" fill="black"/>
</g>
<path d="M62.971 372.89C62.3837 372.913 61.8018 372.771 61.291 372.48C60.7075 372.217 60.1598 371.881 59.661 371.48C59.3643 371.253 59.0836 371.006 58.821 370.74C58.6576 370.59 58.5192 370.414 58.411 370.22C58.3319 370.078 58.3018 369.914 58.3253 369.753C58.3488 369.592 58.4246 369.443 58.541 369.33C58.6537 369.24 58.7844 369.176 58.9242 369.141C59.064 369.107 59.2096 369.103 59.351 369.13C59.5654 369.179 59.7711 369.259 59.961 369.37C60.3119 369.543 60.6466 369.747 60.961 369.98C61.4636 370.369 61.9022 370.835 62.261 371.36C62.871 372.27 62.991 372.95 62.921 372.97C62.851 372.99 62.581 372.4 61.921 371.61C61.5428 371.154 61.1056 370.751 60.621 370.41C60.3379 370.212 60.0404 370.034 59.731 369.88C59.401 369.7 59.101 369.63 58.971 369.77C58.841 369.91 58.911 369.84 58.971 369.96C59.0478 370.103 59.1494 370.232 59.271 370.34C59.5152 370.593 59.7722 370.833 60.041 371.06C60.4995 371.437 60.9915 371.772 61.511 372.06C62.0131 372.309 62.5005 372.586 62.971 372.89Z" fill="#263238"/>
<path d="M62.701 373.08C62.4931 372.525 62.4721 371.918 62.641 371.35C62.7647 370.721 62.9911 370.116 63.311 369.56C63.5067 369.235 63.7345 368.93 63.991 368.65C64.1323 368.449 64.324 368.288 64.547 368.185C64.7699 368.081 65.0162 368.038 65.261 368.06C65.4093 368.098 65.5437 368.177 65.6483 368.289C65.7528 368.4 65.8232 368.54 65.851 368.69C65.8853 368.909 65.8853 369.131 65.851 369.35C65.8216 369.739 65.7304 370.12 65.581 370.48C65.3411 371.086 64.9525 371.623 64.451 372.04C63.591 372.76 62.861 372.79 62.861 372.73C62.861 372.67 63.471 372.46 64.171 371.73C64.5796 371.321 64.8907 370.826 65.081 370.28C65.1974 369.959 65.2649 369.621 65.281 369.28C65.281 368.91 65.281 368.59 65.111 368.6C64.941 368.61 64.591 368.75 64.391 369.01C64.1518 369.258 63.9374 369.53 63.751 369.82C63.4359 370.316 63.1935 370.855 63.031 371.42C62.771 372.42 62.791 373.07 62.701 373.08Z" fill="#263238"/>
<path d="M70.6211 172.23C75.1423 185.341 77.9554 198.98 78.9911 212.81C80.5911 234.88 67.0811 373.29 67.0811 373.29L40.6411 368.52C40.6411 368.52 46.5511 319.74 49.5611 295.91C52.5611 272.45 40.6411 190.34 40.6411 190.34L68.6411 172.23" fill="#263238"/>
<path d="M9.44101 178.47C9.44101 178.47 3.83103 202.47 16.301 228.6C23.791 244.29 78.981 376.16 78.981 376.16L101.791 364.53L45.961 189.02L9.44101 178.47Z" fill="#263238"/>
<path d="M81.031 299.25C80.881 299.25 73.851 278.11 65.311 251.93C56.771 225.75 49.981 204.48 50.121 204.44C50.261 204.4 57.301 225.57 65.831 251.76C74.361 277.95 81.171 299.2 81.031 299.25Z" fill="#455A64"/>
<path d="M78.981 376.16C78.851 376.21 67.731 350.29 54.151 318.26C40.571 286.23 29.671 260.21 29.811 260.15C29.951 260.09 41.071 286.01 54.651 318.05C68.231 350.09 79.121 376.1 78.981 376.16Z" fill="#455A64"/>
<path d="M48.681 200.54C47.9935 200.172 47.326 199.768 46.681 199.33C45.0611 198.395 43.365 197.599 41.611 196.95L38.701 195.87C37.92 195.564 37.1221 195.304 36.311 195.09C35.5575 194.937 34.7899 194.863 34.021 194.87C34.7722 194.557 35.6064 194.504 36.391 194.72C37.2312 194.885 38.0571 195.115 38.861 195.41C39.771 195.71 40.761 196.06 41.801 196.46C43.5854 197.115 45.2896 197.97 46.881 199.01C47.5676 199.408 48.1773 199.926 48.681 200.54Z" fill="#455A64"/>
<path d="M62.5011 186.74C61.3506 188.38 60.0946 189.943 58.7411 191.42C57.5081 193.013 56.1719 194.523 54.7411 195.94C55.7487 194.196 56.9423 192.567 58.3011 191.08C59.5442 189.489 60.952 188.035 62.5011 186.74Z" fill="#455A64"/>
<path d="M20.8311 187.27C21.0195 188.071 20.985 188.908 20.7311 189.69C20.2207 191.63 19.0001 193.308 17.3111 194.39C15.5799 195.359 13.598 195.788 11.6211 195.62C10.8144 195.631 10.01 195.53 9.23108 195.32C10.0244 195.231 10.8236 195.204 11.6211 195.24C13.5089 195.305 15.3789 194.856 17.0311 193.94C18.6096 192.915 19.7886 191.38 20.3711 189.59C20.5633 188.825 20.7168 188.051 20.8311 187.27Z" fill="#455A64"/>
<path d="M72.191 183.05C71.0359 182.735 69.9654 182.167 69.0573 181.387C68.1492 180.607 67.4263 179.634 66.941 178.54C67.071 178.46 67.9411 179.76 69.4011 180.99C70.8611 182.22 72.261 182.96 72.191 183.05Z" fill="#455A64"/>
<path d="M56.191 67.52C57.2307 67.5968 58.2341 67.935 59.1082 68.5032C59.9823 69.0713 60.6987 69.851 61.191 70.77C61.7197 72.0245 62.1379 73.3228 62.441 74.65C62.59 75.313 62.8725 75.9388 63.2714 76.489C63.6703 77.0392 64.1771 77.5023 64.761 77.85C65.841 78.37 67.111 78.23 68.281 78.46C69.6689 78.7811 70.8921 79.5968 71.7222 80.7545C72.5523 81.9121 72.9322 83.3325 72.791 84.75C72.6784 85.1251 72.6784 85.5249 72.791 85.9C72.9259 86.133 73.1233 86.3236 73.361 86.45C74.951 87.4 77.091 87.25 78.511 88.45C79.4078 89.3095 79.9651 90.4632 80.081 91.7C80.4296 94.0517 79.9714 96.4521 78.781 98.51C78.3317 99.3441 77.6992 100.065 76.931 100.62C75.7833 101.268 74.4891 101.612 73.171 101.62C68.741 101.93 64.031 100.94 60.711 97.99C56.321 94.09 49.321 79.34 48.551 73.52L56.191 67.52Z" fill="#263238"/>
<path d="M23.511 83.3L7.79102 90.83L18.951 138.04C18.951 138.04 12.331 157.48 10.101 168.2L7.89102 178.96C30.431 194.31 53.651 192.33 72.721 172.7L62.721 149.97L71.081 117.22L49.011 81.1L43.561 80.82L23.511 83.3Z" fill="#90B2E6"/>
<g opacity="0.3">
<path d="M11.5311 165.38C11.9911 164.43 21.0711 156.61 22.0211 156.15C35.7011 149.55 44.0211 155.77 59.3011 156.99C59.7011 156.99 59.3011 157.29 59.7011 157.33C61.4311 157.48 64.0811 156.54 65.8011 156.79L66.7511 159.79C56.4711 163.89 44.5511 160.34 33.9311 163.43C30.8211 164.34 27.8611 165.81 24.6611 166.34C23.7208 166.382 22.8209 166.734 22.1011 167.34C21.7862 167.746 21.5116 168.181 21.2811 168.64C20.8427 169.176 20.3005 169.618 19.687 169.939C19.0735 170.261 18.4014 170.455 17.7111 170.51C16.2615 170.82 14.749 170.608 13.4411 169.91C12.1911 169.06 10.8911 166.71 11.5311 165.38Z" fill="black"/>
</g>
<path d="M9.83105 161.53C9.03105 161.76 9.31104 164.53 11.291 164.09C14.7293 163.21 18.1037 162.098 21.391 160.76L28.231 155.18L58.891 157.05L54.1511 142.67C54.1511 142.67 22.401 145.67 17.921 147.5C14.651 148.83 12.3111 150.16 10.7811 151.88" fill="#FFBE9D"/>
<path d="M10.7711 151.88C10.3256 152.39 9.93667 152.946 9.61105 153.54C9.17105 154.37 10.4011 155.48 10.4011 155.48C10.4011 155.48 7.68104 156.33 8.63104 157.48C9.58104 158.63 9.92104 158.66 9.92104 158.66C9.92104 158.66 7.70104 160.34 8.17104 161.19C8.64104 162.04 9.83105 161.55 9.83105 161.55" fill="#FFBE9D"/>
<path d="M9.59101 161.67C9.50101 161.57 10.281 160.74 11.591 160.23C12.3259 159.837 13.1773 159.72 13.991 159.9C13.2787 160.235 12.5394 160.509 11.781 160.72C11.0799 161.099 10.3471 161.417 9.59101 161.67Z" fill="#EB996E"/>
<path d="M12.571 157.48C12.571 157.63 11.961 157.82 11.241 158.14C10.521 158.46 9.96098 158.79 9.86098 158.68C9.76098 158.57 10.231 158.01 11.031 157.68C11.831 157.35 12.551 157.34 12.571 157.48Z" fill="#EB996E"/>
<path d="M12.3211 155.23C12.3211 155.29 12.1911 155.31 12.0511 155.36C11.8432 155.438 11.6291 155.498 11.4111 155.54C10.9011 155.62 10.4611 155.54 10.4111 155.44C10.3611 155.34 10.7711 155.11 11.3211 155.01C11.5557 154.966 11.7965 154.966 12.0311 155.01C12.2611 155.03 12.3711 155.17 12.3211 155.23Z" fill="#EB996E"/>
<path d="M49.041 81.07C49.041 81.07 62.411 81.42 67.591 91.61C70.181 96.7 76.941 114.11 79.311 121.45C80.911 126.45 86.231 151.39 80.201 153.86C72.481 157.04 58.921 157.53 58.931 157.53L53.931 143.03C53.5971 141.899 53.7134 140.682 54.2558 139.635C54.7981 138.587 55.7245 137.79 56.841 137.41L60.961 138.29L65.701 136.86L62.471 107.61L57.941 101.96L49.041 81.07Z" fill="#90B2E6"/>
<g opacity="0.3">
<path d="M36.4011 92.71C37.0211 95 36.4011 98.31 36.6611 100.36C37.933 108.539 38.2685 116.835 37.6611 125.09C37.5985 125.537 37.6223 125.992 37.7311 126.43C37.8934 126.811 38.1125 127.165 38.3811 127.48C39.9169 129.8 40.5039 132.62 40.0211 135.36C39.5328 138.069 38.6993 140.703 37.5411 143.2C37.5411 141 37.6711 137.7 37.8811 135.51C37.8811 135.07 38.1411 135.36 38.1611 134.92C38.2711 132.28 37.8611 129.82 36.0311 127.92C35.6462 127.57 35.3099 127.169 35.0311 126.73C34.8316 126.282 34.7163 125.8 34.6911 125.31C33.6911 116.083 33.0444 106.817 32.7511 97.51C32.6793 96.9835 32.7962 96.4486 33.0811 96C33.3764 95.7219 33.7139 95.4924 34.0811 95.32C34.7911 94.86 35.2511 94.04 36.0211 93.68" fill="black"/>
</g>
<path d="M7.79106 90.83C7.79106 90.83 -1.73892 94.68 0.281076 110.83C1.28108 118.76 6.00108 140.17 11.0311 152.5C13.4011 158.3 18.9011 162.35 25.1311 161.63C27.8511 161.31 30.5411 161.78 32.3711 160.71C35.1611 159.08 36.4411 153.49 37.0511 147.44C37.4611 143.32 37.3711 139.02 37.9711 135.51C38.9711 129.77 36.3411 127.03 32.9711 126.31L19.7711 123.48L18.9111 130.48L7.79106 90.83Z" fill="#90B2E6"/>
<path d="M24.171 139.47C24.171 139.47 24.411 139.75 24.921 140.14C25.6406 140.681 26.4882 141.025 27.381 141.14C28.7089 141.298 30.0552 141.126 31.301 140.64C32.8636 140.134 34.3111 139.325 35.561 138.26C36.756 137.147 37.5504 135.671 37.821 134.06C38.0465 132.744 37.9046 131.391 37.411 130.15C36.9156 129.008 36.2139 127.967 35.341 127.08C35.6527 127.23 35.9314 127.441 36.161 127.7C36.8383 128.357 37.3786 129.143 37.751 130.01C38.3277 131.305 38.5187 132.739 38.301 134.14C38.0309 135.875 37.1815 137.469 35.891 138.66C34.588 139.774 33.0699 140.608 31.431 141.11C30.1051 141.598 28.6767 141.739 27.281 141.52C26.3419 141.356 25.4683 140.929 24.761 140.29C24.301 139.83 24.141 139.48 24.171 139.47Z" fill="#263238"/>
<path d="M10.261 150.48C10.261 150.48 10.531 151.19 11.131 152.41C11.9763 154.127 13.1055 155.689 14.471 157.03C16.4848 159.034 18.9931 160.469 21.741 161.19C25.0956 162.083 28.6476 161.884 31.881 160.62C33.591 159.96 34.231 158.09 34.881 156.52C35.4717 154.954 35.9169 153.337 36.211 151.69C36.6869 148.875 37.0206 146.038 37.211 143.19C37.421 140.81 37.591 138.86 37.721 137.42C37.781 136.79 37.841 136.27 37.881 135.85C37.8993 135.668 37.9294 135.488 37.971 135.31C37.9992 135.492 37.9992 135.678 37.971 135.86C37.971 136.28 37.971 136.8 37.901 137.43C37.821 138.87 37.701 140.83 37.571 143.21C37.4405 146.077 37.1535 148.934 36.711 151.77C36.4244 153.455 35.979 155.109 35.381 156.71C35.0596 157.561 34.6752 158.386 34.231 159.18C33.7535 160.038 33.0042 160.714 32.101 161.1C28.7554 162.409 25.0769 162.606 21.611 161.66C19.2636 161.019 17.0882 159.863 15.2427 158.277C13.3972 156.691 11.9278 154.714 10.941 152.49C10.7242 152.009 10.5371 151.514 10.381 151.01C10.3142 150.84 10.2738 150.662 10.261 150.48Z" fill="#263238"/>
<path d="M15.381 140.82C15.3173 139.92 15.3407 139.016 15.451 138.12C15.561 136.47 15.751 134.18 15.991 131.65C16.121 130.39 16.2211 129.2 16.3711 128.09C16.4681 127.079 16.8341 126.112 17.4311 125.29C17.8589 124.743 18.4632 124.361 19.141 124.21C19.631 124.12 19.891 124.21 19.881 124.21C19.871 124.21 19.621 124.21 19.191 124.38C18.6004 124.589 18.0899 124.977 17.731 125.49C16.731 126.77 16.811 129.17 16.521 131.68C16.231 134.19 16.031 136.48 15.821 138.13C15.7661 139.039 15.6187 139.941 15.381 140.82Z" fill="#263238"/>
<path d="M10.821 92.29C11.2015 92.3418 11.5664 92.4749 11.8911 92.68C12.8039 93.1857 13.6091 93.8651 14.261 94.68C15.2134 95.8917 15.9353 97.2678 16.3911 98.74C16.9411 100.39 17.3111 102.24 17.7411 104.16C18.5811 108.02 19.311 111.51 19.821 114.05C20.071 115.32 20.2611 116.34 20.3911 117.05C20.4772 117.417 20.5242 117.793 20.5311 118.17C20.3713 117.826 20.2569 117.463 20.191 117.09C20.001 116.39 19.751 115.38 19.451 114.09C18.851 111.57 18.061 108.09 17.221 104.23C16.791 102.31 16.4411 100.46 15.9311 98.85C15.5031 97.4101 14.8262 96.0563 13.9311 94.85C13.0941 93.7795 12.0325 92.9056 10.821 92.29Z" fill="#263238"/>
<path d="M71.141 156.16C70.8602 156.257 70.5674 156.314 70.271 156.33L67.791 156.67L58.941 157.76H58.761L58.701 157.58C58.161 155.98 57.641 154.23 57.121 152.37C56.601 150.51 56.071 148.56 55.391 146.59C55.121 145.82 54.841 145.06 54.551 144.32L54.101 143.23C53.9161 142.861 53.7848 142.467 53.711 142.06C53.611 141.28 53.611 140.49 53.711 139.71C53.7717 139.315 53.9188 138.938 54.1417 138.606C54.3647 138.274 54.6581 137.996 55.001 137.79C55.6247 137.387 56.3484 137.165 57.091 137.15C57.7751 137.181 58.4501 137.319 59.091 137.56C59.6525 137.77 60.2314 137.931 60.821 138.04C61.3624 138.105 61.9096 138.105 62.451 138.04C63.4014 137.918 64.3365 137.696 65.241 137.38C65.9449 137.154 66.6734 137.012 67.411 136.96C67.8796 136.934 68.3496 136.964 68.811 137.05C68.9729 137.072 69.131 137.115 69.281 137.18C68.665 137.14 68.047 137.14 67.431 137.18C66.7138 137.269 66.0092 137.44 65.331 137.69C64.4134 138.037 63.4614 138.285 62.491 138.43C61.9162 138.495 61.3358 138.495 60.761 138.43C60.1472 138.317 59.5423 138.16 58.951 137.96C58.3616 137.738 57.7402 137.614 57.111 137.59C56.4599 137.615 55.8277 137.816 55.281 138.17C54.9975 138.34 54.7554 138.571 54.5721 138.846C54.3887 139.121 54.2688 139.433 54.221 139.76C54.131 140.491 54.131 141.229 54.221 141.96C54.2934 142.309 54.4146 142.645 54.581 142.96C54.731 143.33 54.891 143.7 55.031 144.07C55.341 144.81 55.621 145.58 55.891 146.36C56.581 148.36 57.111 150.36 57.611 152.18C58.111 154 58.611 155.78 59.141 157.37L58.891 157.22L67.761 156.32L70.251 156.11C70.5485 156.1 70.8464 156.117 71.141 156.16Z" fill="#263238"/>
<path d="M72.7111 138.31C72.7111 138.25 73.1211 138.31 73.6511 138.62C74.3292 139.056 74.8918 139.65 75.291 140.35C75.9151 141.28 76.2904 142.354 76.381 143.47C76.221 143.54 75.7211 142.14 74.8411 140.63C74.4682 139.989 73.9917 139.415 73.4311 138.93C73.0011 138.56 72.6811 138.38 72.7111 138.31Z" fill="#263238"/>
<path d="M62.051 138.31C61.9574 137.863 61.9238 137.406 61.951 136.95C61.9526 135.713 62.0294 134.478 62.181 133.25C62.491 130.13 63.581 125.93 64.121 121.25C64.6874 117.249 64.3456 113.171 63.121 109.32C62.5221 107.762 61.7435 106.278 60.801 104.9C60.801 104.9 60.911 104.97 61.061 105.14C61.2909 105.389 61.5047 105.653 61.701 105.93C62.433 106.933 63.0282 108.03 63.471 109.19C64.691 112.11 65.211 116.55 64.671 121.31C64.411 123.69 63.961 125.92 63.561 127.94C63.161 129.96 62.791 131.77 62.561 133.31C62.331 134.85 62.221 136.1 62.171 136.96C62.1686 137.413 62.1284 137.864 62.051 138.31Z" fill="#263238"/>
<g opacity="0.3">
<path d="M63.5811 110.11C64.0911 111.95 64.581 113.8 65.131 115.64C65.7594 117.587 66.1587 119.601 66.321 121.64C66.3322 123.357 66.1782 125.072 65.8611 126.76C65.5611 128.7 65.271 130.64 64.951 132.58C64.631 134.52 65.2411 136.15 64.0811 137.82L62.0811 138.16C62.3611 129.56 65.751 118.44 63.691 110.08" fill="black"/>
</g>
<path d="M55.6111 92.08C56.3985 93.6506 57.0476 95.2868 57.5511 96.97C58.2132 98.6059 58.7906 100.275 59.2811 101.97C58.3051 100.499 57.5536 98.8919 57.0511 97.2C56.379 95.5533 55.896 93.8356 55.6111 92.08Z" fill="#263238"/>
<g opacity="0.3">
<path d="M20.4611 121.89C19.2447 121.889 18.0588 122.27 17.0711 122.98C14.8639 124.454 13.2543 126.666 12.5311 129.22C11.8245 131.771 11.9082 134.477 12.7711 136.98C13.0311 137.76 13.5511 138.64 14.3611 138.62C15.3611 138.62 15.7311 137.4 15.8811 136.45C16.2911 133.81 16.6911 131.17 17.1011 128.53C17.2083 127.633 17.4759 126.762 17.8911 125.96C18.0994 125.555 18.4146 125.216 18.8025 124.978C19.1903 124.74 19.636 124.613 20.0911 124.61L20.3811 121.79" fill="black"/>
</g>
<path d="M18.5111 110.64C18.5111 110.64 17.5111 110.86 15.9111 111.37C13.8484 112.04 11.8421 112.873 9.9111 113.86C7.6311 115 5.6411 116.17 4.2211 117.04L2.53113 118.04C2.33121 118.18 2.11658 118.297 1.89111 118.39C2.06219 118.217 2.2536 118.066 2.46112 117.94C2.84112 117.66 3.4011 117.27 4.1011 116.82C5.9272 115.62 7.82029 114.525 9.77112 113.54C11.7174 112.544 13.753 111.734 15.8511 111.12C16.488 110.933 17.1359 110.786 17.7911 110.68C18.0278 110.631 18.2705 110.618 18.5111 110.64Z" fill="#FAFAFA"/>
<path d="M19.891 116.52C19.6715 116.63 19.44 116.714 19.201 116.77C18.751 116.92 18.101 117.12 17.301 117.4C15.2197 118.124 13.1799 118.962 11.191 119.91C9.2008 120.856 7.27648 121.935 5.43103 123.14C4.72103 123.6 4.16104 124 3.78104 124.28C3.59386 124.439 3.3892 124.577 3.17102 124.69C3.17102 124.69 3.35103 124.49 3.71103 124.18C4.07103 123.87 4.61103 123.44 5.30103 122.95C7.12289 121.687 9.04611 120.576 11.051 119.63C13.0498 118.669 15.1151 117.854 17.231 117.19C18.041 116.94 18.701 116.76 19.171 116.66C19.4054 116.588 19.6467 116.541 19.891 116.52Z" fill="#FAFAFA"/>
<path d="M72.3311 103.46C71.8519 103.628 71.3604 103.758 70.8611 103.85C69.6773 104.145 68.512 104.509 67.3711 104.94C66.2324 105.385 65.1205 105.896 64.041 106.47C63.6072 106.733 63.1561 106.967 62.691 107.17C63.0567 106.809 63.4748 106.506 63.9311 106.27C64.9892 105.636 66.0999 105.094 67.251 104.65C68.4052 104.21 69.5967 103.876 70.8111 103.65C71.3071 103.52 71.8182 103.456 72.3311 103.46Z" fill="#FAFAFA"/>
<path d="M75.4811 110.74C74.923 110.798 74.3623 110.828 73.8011 110.83C72.4637 110.943 71.1444 111.215 69.8711 111.64C68.0905 112.319 66.348 113.093 64.6511 113.96C65.0813 113.591 65.5548 113.275 66.0611 113.02C67.2453 112.344 68.4908 111.781 69.7811 111.34C71.0711 110.9 72.419 110.654 73.7811 110.61C74.1939 110.58 74.6083 110.58 75.0211 110.61C75.181 110.625 75.3368 110.669 75.4811 110.74Z" fill="#FAFAFA"/>
<path d="M52.501 33.88C54.1219 34.8051 55.4473 36.1708 56.3234 37.8186C57.1995 39.4665 57.5905 41.3289 57.451 43.19C57.221 44.6 56.701 46.04 57.081 47.42C57.5556 48.5624 58.2332 49.6093 59.081 50.51C60.3247 52.1875 60.997 54.22 60.9988 56.3082C61.0007 58.3964 60.332 60.4301 59.0912 62.1098C57.8505 63.7895 56.1033 65.0264 54.1068 65.6386C52.1103 66.2507 49.97 66.2056 48.001 65.51" fill="#263238"/>
<path d="M55.9511 51.89C63.0311 32.56 42.1111 24.71 31.3211 28.66C21.1811 32.37 17.1511 37.86 15.9711 44.92C14.7911 51.98 15.4411 59.49 18.6611 65.92C20.2511 69.07 22.9111 72.2 26.4411 72.34" fill="#263238"/>
<path d="M27.631 89.9L22.631 43.36C22.5465 42.4796 22.7956 41.5995 23.3289 40.894C23.8622 40.1884 24.641 39.7088 25.511 39.55L43.8411 33.41C49.7711 32.32 54.3111 39.41 55.1511 45.41C56.0711 52.05 56.9411 60.19 56.5311 65.23C55.7011 75.36 48.1211 77.23 48.1211 77.23C48.1211 77.23 48.711 86.06 49.221 94.33C49.2343 94.6483 49.1714 94.9652 49.0375 95.2542C48.9035 95.5433 48.7025 95.7962 48.4511 95.9918C48.1997 96.1875 47.9052 96.3203 47.5921 96.3791C47.279 96.4379 46.9563 96.4211 46.6511 96.33L27.631 89.9Z" fill="#FFBE9D"/>
<path d="M53.3911 52.1C53.4222 52.4319 53.3226 52.7629 53.1134 53.0225C52.9042 53.282 52.602 53.4498 52.2711 53.49C52.1127 53.5186 51.9502 53.5153 51.793 53.4804C51.6359 53.4454 51.4873 53.3794 51.356 53.2863C51.2247 53.1931 51.1133 53.0747 51.0283 52.938C50.9433 52.8013 50.8865 52.649 50.8611 52.49C50.8246 52.1586 50.9209 51.8262 51.1289 51.5657C51.337 51.3051 51.6398 51.1377 51.9711 51.1C52.1301 51.0713 52.2932 51.0745 52.451 51.1094C52.6088 51.1442 52.7581 51.2101 52.8902 51.3031C53.0223 51.3962 53.1346 51.5145 53.2206 51.6513C53.3066 51.7881 53.3645 51.9406 53.3911 52.1Z" fill="#263238"/>
<path d="M40.3011 53.09C40.3324 53.423 40.233 53.7552 40.0241 54.0164C39.8151 54.2776 39.5129 54.4474 39.1811 54.49C38.8618 54.5423 38.5348 54.4666 38.2709 54.2795C38.0069 54.0923 37.8274 53.8086 37.7711 53.49C37.7502 53.3225 37.7626 53.1525 37.8076 52.9897C37.8526 52.827 37.9294 52.6748 38.0335 52.5419C38.1376 52.409 38.267 52.298 38.4142 52.2153C38.5613 52.1326 38.7235 52.0798 38.8911 52.06C39.0516 52.033 39.2158 52.0384 39.3741 52.0758C39.5325 52.1133 39.6817 52.182 39.8131 52.278C39.9445 52.3739 40.0554 52.4952 40.1392 52.6347C40.223 52.7741 40.278 52.929 40.3011 53.09Z" fill="#263238"/>
<path d="M53.461 49.3C53.321 49.48 52.271 48.87 50.901 49.02C49.531 49.17 48.591 50.02 48.421 49.83C48.251 49.64 48.471 49.44 48.871 49.07C49.4306 48.5816 50.131 48.2839 50.871 48.22C51.5892 48.1383 52.3147 48.289 52.941 48.65C53.361 48.96 53.531 49.21 53.461 49.3Z" fill="#263238"/>
<path d="M40.381 50.62C40.231 50.8 39.201 50.15 37.821 50.25C36.441 50.35 35.481 51.12 35.311 50.96C35.141 50.8 35.371 50.58 35.801 50.22C36.3725 49.7634 37.071 49.4945 37.801 49.45C38.5036 49.403 39.2032 49.5779 39.801 49.95C40.281 50.25 40.451 50.54 40.381 50.62Z" fill="#263238"/>
<path d="M45.8911 60.9C46.5999 60.6149 47.3428 60.4233 48.1011 60.33C48.4511 60.26 48.7811 60.17 48.8211 59.92C48.8162 59.5623 48.7047 59.2141 48.5011 58.92L47.2611 56.32C45.5211 52.6 44.2611 49.54 44.3811 49.47C44.5011 49.4 46.0611 52.35 47.8011 56.07L49.0111 58.7C49.2613 59.1101 49.3603 59.5947 49.2911 60.07C49.2514 60.1992 49.1818 60.3172 49.088 60.4145C48.9942 60.5118 48.8787 60.5857 48.7511 60.63C48.559 60.6919 48.3614 60.7354 48.1611 60.76C47.4137 60.9051 46.6506 60.9522 45.8911 60.9Z" fill="#263238"/>
<path d="M48.111 77.18C43.4021 77.6063 38.6671 76.7203 34.431 74.62C34.431 74.62 38.351 81.33 48.301 79.62L48.111 77.18Z" fill="#EB996E"/>
<path d="M45.5811 64.28C45.2947 63.9672 44.9329 63.7331 44.5302 63.6001C44.1275 63.467 43.6975 63.4395 43.2811 63.52C42.9756 63.5743 42.6847 63.6911 42.4265 63.8632C42.1684 64.0353 41.9487 64.2589 41.7811 64.52C41.6125 64.764 41.5222 65.0535 41.5222 65.35C41.5222 65.6465 41.6125 65.936 41.7811 66.18C42.024 66.4091 42.3289 66.5616 42.6579 66.6186C42.9869 66.6755 43.3254 66.6342 43.6311 66.5C44.2633 66.2167 44.8341 65.8125 45.3111 65.31C45.4608 65.1877 45.5863 65.0385 45.6811 64.87C45.7302 64.794 45.7563 64.7055 45.7563 64.615C45.7563 64.5245 45.7302 64.436 45.6811 64.36" fill="#EB996E"/>
<path d="M41.891 62.17C42.121 62.17 42.231 63.63 43.601 64.6C44.971 65.57 46.551 65.28 46.601 65.49C46.651 65.7 46.271 65.81 45.601 65.88C44.7226 65.9568 43.845 65.7233 43.121 65.22C42.4371 64.7491 41.9607 64.0328 41.791 63.22C41.681 62.55 41.821 62.16 41.891 62.17Z" fill="#263238"/>
<path d="M40.561 48.57C40.461 48.96 39.061 48.88 37.461 49.2C35.861 49.52 34.571 50.06 34.331 49.74C34.221 49.59 34.431 49.21 34.931 48.81C35.6022 48.3126 36.3776 47.9741 37.1986 47.82C38.0197 47.6658 38.8651 47.7 39.671 47.92C40.291 48.11 40.611 48.39 40.561 48.57Z" fill="#263238"/>
<path d="M52.8911 45.79C52.6711 46.12 51.6911 45.87 50.5411 45.94C49.3911 46.01 48.4511 46.31 48.2011 46C48.0911 45.85 48.2011 45.52 48.6211 45.19C49.157 44.7813 49.8074 44.5505 50.4811 44.53C51.153 44.4929 51.82 44.664 52.3911 45.02C52.8111 45.31 52.9711 45.63 52.8911 45.79Z" fill="#263238"/>
<path d="M25.3311 56.35C25.1811 56.29 19.7911 54.35 20.1811 60.35C20.5711 66.35 26.5211 64.71 26.5211 64.54C26.5211 64.37 25.3311 56.35 25.3311 56.35Z" fill="#FFBE9D"/>
<path d="M24.541 62.42C24.541 62.42 24.441 62.5 24.271 62.59C24.0289 62.7101 23.7506 62.7351 23.491 62.66C23.0875 62.44 22.7497 62.1166 22.5125 61.7229C22.2753 61.3293 22.147 60.8796 22.141 60.42C22.0933 59.9055 22.1581 59.3869 22.331 58.9C22.3753 58.7086 22.466 58.5309 22.595 58.3827C22.724 58.2345 22.8875 58.1203 23.071 58.05C23.1874 58.0086 23.3147 58.0101 23.4302 58.0541C23.5456 58.098 23.6416 58.1817 23.701 58.29C23.791 58.46 23.761 58.58 23.791 58.59C23.821 58.6 23.921 58.48 23.851 58.23C23.8071 58.0843 23.7155 57.9575 23.591 57.87C23.5048 57.8136 23.4083 57.7748 23.307 57.756C23.2058 57.7371 23.1017 57.7385 23.001 57.76C22.7632 57.8283 22.5468 57.9559 22.3718 58.1308C22.1969 58.3057 22.0693 58.5222 22.001 58.76C21.7829 59.295 21.6971 59.8748 21.751 60.45C21.7551 60.9856 21.9178 61.508 22.2186 61.9511C22.5194 62.3943 22.9448 62.7384 23.441 62.94C23.6129 62.9889 23.7942 62.9944 23.9687 62.956C24.1433 62.9176 24.3055 62.8365 24.441 62.72C24.541 62.56 24.561 62.43 24.541 62.42Z" fill="#EB996E"/>
<path d="M45.5911 30.24C49.0611 31.71 50.9511 38.43 49.8311 42.02C48.7111 45.61 45.1311 47.61 41.5211 48.69C38.0107 49.832 34.2701 50.0761 30.6411 49.4C30.5711 51.86 29.3011 54.46 26.9911 55.28C23.9311 56.37 20.5711 53.75 19.6311 50.64C18.6911 47.53 19.4911 44.2 20.2911 41.05" fill="#263238"/>
<path d="M20.801 53.96C20.801 53.96 20.961 54.13 21.291 54.37C21.621 54.61 22.111 54.94 22.751 55.3C23.5023 55.7541 24.3183 56.0912 25.171 56.3C26.2346 56.5484 27.3499 56.4467 28.351 56.01C29.3292 55.5199 30.1196 54.7225 30.601 53.74C30.9874 52.9556 31.2151 52.1026 31.271 51.23C31.3249 50.6513 31.3249 50.0687 31.271 49.49C31.262 49.2744 31.2181 49.0616 31.141 48.86C31.071 48.86 31.211 49.77 31.061 51.21C30.9722 52.0446 30.728 52.8552 30.341 53.6C29.8827 54.5068 29.1422 55.2403 28.231 55.69C27.2879 56.1056 26.2363 56.2072 25.231 55.98C24.4082 55.8095 23.6136 55.5233 22.871 55.13C21.591 54.44 20.831 53.96 20.801 53.96Z" fill="#263238"/>
<path d="M19.071 39.34C19.071 39.34 19.1411 39.01 19.3611 38.43C19.6853 37.6288 20.1722 36.9035 20.791 36.3C21.7137 35.4168 22.8104 34.7357 24.011 34.3C25.5027 33.7842 27.0394 33.4092 28.601 33.18C31.4515 32.7415 34.2428 31.9799 36.9211 30.91C37.9211 30.5 38.7611 30.12 39.3111 29.85L39.941 29.52C40.0196 29.4862 40.0936 29.4426 40.161 29.39L39.9311 29.48L39.2811 29.77C38.7111 30.03 37.9011 30.38 36.8711 30.77C34.1827 31.7829 31.3984 32.52 28.5611 32.97C26.9864 33.1926 25.4385 33.5745 23.941 34.11C22.7161 34.5723 21.6044 35.2918 20.6811 36.22C20.0588 36.8497 19.5811 37.6072 19.2811 38.44C19.2086 38.6666 19.1485 38.8969 19.101 39.13L19.071 39.34Z" fill="#455A64"/>
<path d="M17.891 62.22C17.891 62.22 17.781 62.16 17.611 62.02C17.3541 61.7967 17.1197 61.5489 16.911 61.28C16.1256 60.2688 15.6095 59.0749 15.411 57.81C15.1263 55.8639 15.4585 53.8775 16.361 52.13C16.8868 51.0703 17.5601 50.0906 18.361 49.22C19.2144 48.1928 20.3926 47.4873 21.701 47.22L21.491 47.55C21.0706 46.2115 21.048 44.7798 21.4262 43.4288C21.8043 42.0778 22.5669 40.8657 23.621 39.94C25.0679 38.8285 26.8031 38.1552 28.621 38C30.331 37.75 31.951 37.61 33.461 37.25C36.1679 36.7402 38.6846 35.5025 40.741 33.67C42.0961 32.4034 43.0753 30.7874 43.571 29C43.7201 28.3408 43.827 27.6728 43.891 27C43.9286 27.1775 43.9453 27.3587 43.941 27.54C43.938 28.0545 43.881 28.5673 43.771 29.07C43.3373 30.9325 42.3755 32.6304 41.001 33.96C38.924 35.8884 36.3514 37.2007 33.571 37.75C32.031 38.13 30.371 38.28 28.701 38.53C26.9861 38.6807 25.3493 39.3154 23.981 40.36C23.0135 41.2136 22.3109 42.3266 21.9564 43.5673C21.602 44.8079 21.6105 46.1241 21.981 47.36L22.081 47.65H21.781C20.5834 47.9034 19.5036 48.547 18.711 49.48C17.9186 50.3094 17.2455 51.245 16.711 52.26C15.8257 53.9272 15.4765 55.827 15.711 57.7C15.8757 58.928 16.328 60.0998 17.031 61.12C17.501 61.89 17.891 62.19 17.891 62.22Z" fill="#455A64"/>
<path d="M48.001 77.12C48.001 77.12 49.111 92.23 49.941 99.94C50.231 102.56 50.581 105.29 52.101 107.45C53.4263 109.159 55.3529 110.3 57.489 110.64C59.6251 110.98 61.8105 110.494 63.601 109.28C65.3024 107.94 66.4636 106.031 66.8714 103.904C67.2791 101.777 66.9062 99.5743 65.821 97.7C65.031 96.4 63.821 94.92 64.531 93.56C64.8453 93.0673 65.2331 92.6255 65.681 92.25C67.751 90.03 67.111 86.42 65.771 83.69C65.5167 82.9891 65.0104 82.408 64.351 82.06C63.601 81.76 62.731 82.06 61.941 81.85C60.241 81.37 60.131 79.08 59.751 77.35C59.181 74.83 57.191 72.14 54.621 71.76C54.621 71.76 52.121 75.89 48.001 77.12Z" fill="#263238"/>
<path d="M65.6711 91.32C66.1301 90.1858 66.4167 88.9891 66.5212 87.77C66.5877 86.4576 66.3409 85.1482 65.8012 83.95C65.128 82.4927 64.0569 81.2551 62.7112 80.38C62.0012 79.92 61.181 79.63 60.481 79.09C60.124 78.8298 59.8358 78.4866 59.6412 78.09C59.476 77.7041 59.3877 77.2897 59.3811 76.87C59.4047 76.1696 59.351 75.4687 59.2211 74.78C59.0203 74.2119 58.6758 73.7055 58.2211 73.31C57.4011 72.54 56.6311 71.97 56.2211 71.46C55.9774 71.2223 55.7984 70.9263 55.701 70.6C55.701 70.6 55.9212 70.88 56.3712 71.32C56.8212 71.76 57.5911 72.27 58.4711 73.04C58.9815 73.4692 59.3711 74.0241 59.6011 74.65C59.7648 75.3681 59.8386 76.1037 59.821 76.84C59.8222 77.2022 59.9068 77.5592 60.068 77.8835C60.2293 78.2078 60.4629 78.4906 60.751 78.71C61.361 79.18 62.181 79.47 62.951 79.97C64.3883 80.894 65.5193 82.2233 66.201 83.79C66.7441 85.0494 66.9674 86.4235 66.851 87.79C66.7748 88.7108 66.5379 89.611 66.1511 90.45C66.0447 90.7665 65.882 91.0612 65.6711 91.32Z" fill="#455A64"/>
<path d="M59.541 110.67C59.541 110.62 60.011 110.33 60.761 109.67C61.7887 108.654 62.5629 107.411 63.021 106.04C63.7182 104.019 63.6144 101.807 62.731 99.86C61.731 97.66 59.731 95.86 57.831 93.69C56.8913 92.6478 56.1066 91.4758 55.501 90.21C54.9258 89.0062 54.694 87.6671 54.831 86.34C54.971 85.08 55.341 83.97 55.521 82.91C55.7026 81.9384 55.7026 80.9416 55.521 79.97C55.2508 78.5508 54.6323 77.221 53.721 76.1C53.061 75.31 52.591 74.97 52.621 74.93C52.651 74.89 52.761 74.99 52.981 75.16C53.3007 75.4035 53.5985 75.6745 53.871 75.97C54.7252 76.9033 55.357 78.0179 55.7189 79.2303C56.0809 80.4426 56.1636 81.7211 55.961 82.97C55.791 84.06 55.441 85.18 55.321 86.37C55.2126 87.6108 55.4406 88.8578 55.981 89.98C56.5757 91.1958 57.3363 92.3232 58.241 93.33C60.081 95.42 62.151 97.33 63.181 99.63C64.0943 101.691 64.1661 104.027 63.381 106.14C62.8789 107.548 62.0293 108.807 60.911 109.8C60.5994 110.063 60.2647 110.297 59.911 110.5C59.7969 110.575 59.6721 110.632 59.541 110.67Z" fill="#455A64"/>
<path d="M19.5811 126.2L23.4211 89.48L34.4211 93.98L35.3111 131.41C35.3111 131.41 31.711 136.69 25.791 134.41C24.0872 133.766 22.6001 132.654 21.5013 131.201C20.4026 129.748 19.7369 128.015 19.5811 126.2Z" fill="#FFBE9D"/>
<path d="M22.7011 57.26L43.0311 75.66L39.1111 89.13L37.6111 89.55L19.8711 70.87L21.2011 57.68L22.7011 57.26Z" fill="#263238"/>
<path d="M21.2011 57.68L41.5311 76.08L37.6111 89.55L18.3711 71.29L21.2011 57.68Z" fill="#455A64"/>
<path d="M34.821 95.17C36.0963 93.8044 36.8535 92.0354 36.961 90.17C36.961 87.39 36.281 80.71 36.281 80.71C36.281 80.71 39.971 73.23 39.891 72.23C39.811 71.23 39.651 71.23 38.361 71.63C37.071 72.03 32.991 78.82 32.991 78.82L31.761 73.71C31.761 73.71 35.151 68.41 35.421 67.71C35.691 67.01 36.141 66.36 35.311 66.28C34.481 66.2 28.171 72.15 28.171 72.15L28.591 77.73C28.591 77.73 28.461 78.18 27.591 77.38C26.721 76.58 27.021 69.93 27.021 69.93C27.021 69.93 29.201 66.02 29.161 65.45C29.121 64.88 29.561 64.27 29.161 63.29C28.761 62.31 27.521 63.42 27.521 63.42L23.311 68.78L21.911 63.39C21.911 63.39 21.991 62.25 20.501 62.22L20.831 79.62L24.401 92.96L34.821 95.17Z" fill="#FFBE9D"/>
<path d="M35.261 131.41C35.261 131.41 35.261 131.18 35.261 130.75C35.261 130.32 35.2111 129.65 35.1811 128.83C35.1311 127.12 35.0511 124.66 34.9611 121.53C34.8011 115.19 34.571 106.15 34.291 95.2V95.09L34.381 95.02C35.2629 94.2648 35.9491 93.3076 36.381 92.23C36.7992 91.0754 36.9563 89.8425 36.8411 88.62C36.7511 86.07 36.4711 83.42 36.1511 80.7V80.63V80.57C36.8411 79.14 37.5311 77.68 38.2111 76.17C38.5511 75.42 38.8811 74.66 39.2111 73.88C39.3611 73.5 39.511 73.1 39.631 72.71L39.7111 72.42C39.7111 72.33 39.7111 72.28 39.7111 72.18C39.702 72.0029 39.6684 71.8278 39.6111 71.66C39.6111 71.53 39.081 71.66 38.721 71.77C38.542 71.8129 38.3747 71.8949 38.231 72.01C38.069 72.1366 37.9185 72.2771 37.7811 72.43C37.2091 73.0622 36.678 73.7302 36.191 74.43C35.191 75.85 34.191 77.36 33.291 78.89L32.9611 79.43L32.8111 78.81C32.4211 77.2 32.001 75.46 31.571 73.7V73.6L31.631 73.5L33.351 70.77C34.001 69.7 34.721 68.59 35.261 67.54C35.371 67.24 35.521 66.93 35.601 66.68C35.681 66.43 35.601 66.49 35.601 66.5C35.5202 66.471 35.4319 66.471 35.351 66.5C35.2457 66.5342 35.1449 66.5812 35.0511 66.64C34.9311 66.71 34.8011 66.81 34.6811 66.89C34.5611 66.97 34.181 67.24 33.941 67.44C32.011 68.98 30.2011 70.64 28.4311 72.28L28.511 72.07C28.651 73.9567 28.7911 75.82 28.9311 77.66C28.8969 77.7612 28.8278 77.847 28.7362 77.9019C28.6446 77.9569 28.5364 77.9775 28.4311 77.96C28.3045 77.9433 28.1823 77.9026 28.071 77.84C27.891 77.7398 27.7232 77.619 27.571 77.48C27.2801 77.1655 27.0978 76.7659 27.0511 76.34C26.9288 75.6023 26.8553 74.8574 26.8311 74.11C26.7811 72.64 26.8311 71.2 26.8311 69.77V69.72C27.6011 68.39 28.2891 67.0141 28.8911 65.6C28.9128 65.5313 28.9295 65.4611 28.941 65.39C28.941 65.33 28.941 65.17 28.941 65.08C28.941 64.99 29.0211 64.68 29.0511 64.51C29.1357 64.182 29.1357 63.838 29.0511 63.51C28.9411 63.15 28.8311 63 28.5511 63.04C28.237 63.1207 27.9482 63.2789 27.7111 63.5L23.4911 68.85L23.221 69.2L23.1111 68.77C22.6311 66.91 22.171 65.11 21.721 63.39V63.32C21.7215 63.1777 21.6882 63.0374 21.6238 62.9105C21.5595 62.7836 21.466 62.6738 21.351 62.59C21.0988 62.4346 20.8073 62.3548 20.511 62.36L20.7111 62.16C20.8211 69.24 20.901 75.11 20.971 79.56C21.751 82.77 22.3511 85.25 22.7711 86.96C22.9611 87.78 23.1111 88.42 23.2111 88.87C23.3111 89.32 23.3411 89.53 23.3411 89.53C23.3411 89.53 23.2711 89.32 23.1511 88.89L22.6411 86.99C22.1911 85.29 21.551 82.82 20.721 79.62C20.611 75.17 20.481 69.3 20.321 62.23V61.96H20.5311C20.9063 61.9531 21.2751 62.0575 21.5911 62.26C21.765 62.3828 21.9061 62.5464 22.002 62.7364C22.0979 62.9265 22.1456 63.1372 22.1411 63.35V63.28L23.5511 68.66L23.1711 68.58L27.3711 63.21C27.6756 62.9297 28.0478 62.7333 28.451 62.64C28.5776 62.616 28.708 62.6226 28.8315 62.6591C28.9549 62.6956 29.0679 62.7611 29.161 62.85C29.3176 63.0138 29.425 63.2182 29.471 63.44C29.5756 63.8433 29.5756 64.2667 29.471 64.67C29.471 64.86 29.3911 65.04 29.3711 65.21C29.3606 65.293 29.3606 65.377 29.3711 65.46C29.3607 65.5798 29.3338 65.6976 29.291 65.81C28.6887 67.2597 27.994 68.6693 27.2111 70.03V69.92C27.1611 71.33 27.1411 72.76 27.2111 74.21C27.2256 74.931 27.2958 75.6498 27.4211 76.36C27.4548 76.6756 27.5799 76.9745 27.7811 77.22C27.9046 77.3295 28.0386 77.4267 28.1811 77.51C28.2349 77.5372 28.292 77.5574 28.351 77.57C28.3467 77.5898 28.3467 77.6102 28.351 77.63H28.221V77.73C28.081 75.89 27.9377 74.0267 27.791 72.14V71.96L27.881 71.87C29.651 70.22 31.451 68.56 33.411 66.99L34.1811 66.42C34.3125 66.3253 34.4494 66.2385 34.5911 66.16C34.7588 66.0455 34.9502 65.9703 35.1511 65.94C35.2625 65.9304 35.3748 65.9431 35.4812 65.9774C35.5877 66.0118 35.6862 66.067 35.7711 66.14C35.8555 66.2352 35.9115 66.3523 35.9327 66.4778C35.954 66.6033 35.9395 66.7323 35.8911 66.85C35.7811 67.2 35.651 67.46 35.541 67.75C34.941 68.95 34.2611 69.97 33.5911 71.07L31.8611 73.81V73.6L33.0911 78.71L32.6111 78.64C33.5511 77.09 34.5111 75.59 35.5311 74.15C36.0382 73.4206 36.5893 72.7226 37.1811 72.06C37.3356 71.8909 37.5028 71.7338 37.6811 71.59C37.8772 71.4399 38.1017 71.331 38.3411 71.27C38.5511 71.21 38.761 71.15 39.001 71.1C39.1369 71.0793 39.2752 71.0793 39.411 71.1C39.5016 71.1191 39.5869 71.1576 39.6612 71.2128C39.7354 71.2681 39.7968 71.3388 39.8411 71.42C39.9281 71.6508 39.9787 71.8937 39.9911 72.14C40.0009 72.2698 40.0009 72.4002 39.9911 72.53L39.9011 72.86C39.7711 73.28 39.6211 73.68 39.4611 74.07C39.1511 74.86 38.8111 75.62 38.4611 76.38C37.7811 77.89 37.081 79.38 36.381 80.78V80.64C36.691 83.37 36.9611 86.02 37.0511 88.64C37.1654 89.9288 36.9912 91.2269 36.541 92.44C36.0711 93.6061 35.3185 94.6371 34.351 95.44L34.441 95.26C34.641 106.26 34.8111 115.26 34.9211 121.59C34.9711 124.73 35.0011 127.19 35.0211 128.9C35.0211 129.72 35.0211 130.36 35.0211 130.82C35.0211 131.28 35.261 131.41 35.261 131.41Z" fill="#EB996E"/>
<path d="M24.031 78.15C23.6577 76.5905 23.4631 74.9935 23.451 73.39C23.2715 71.795 23.2715 70.185 23.451 68.59C23.8095 70.1553 24.0006 71.7543 24.021 73.36C24.1943 74.9518 24.1976 76.5575 24.031 78.15Z" fill="#EB996E"/>
<path d="M78 55.2642L84.16 44.4242C80.3503 38.2702 78.9794 30.9141 80.3168 23.8009C81.6542 16.6878 85.6032 10.3319 91.3878 5.98179C97.1725 1.63173 104.375 -0.397999 111.58 0.291365C118.784 0.980729 125.471 4.33936 130.326 9.70741C135.181 15.0755 137.853 22.0649 137.817 29.3026C137.781 36.5403 135.041 43.503 130.133 48.8229C125.225 54.1428 118.506 57.4353 111.295 58.0535C104.083 58.6718 96.9015 56.5711 91.16 52.1642L78 55.2642Z" fill="white"/>
<path d="M78 55.2642L91.1 52.0442L91.02 52.2542C90.9981 52.2274 90.9861 52.1938 90.9861 52.1592C90.9861 52.1246 90.9981 52.091 91.02 52.0642C91.0458 52.0493 91.0752 52.0414 91.105 52.0414C91.1349 52.0414 91.1642 52.0493 91.19 52.0642C95.2248 55.158 100.007 57.1281 105.05 57.7742C106.558 57.9761 108.08 58.0464 109.6 57.9842C110.38 57.9842 111.18 57.9142 111.98 57.8442L114.4 57.4642C121.602 56.0225 127.988 51.9018 132.27 45.9342C134.644 42.6329 136.284 38.8618 137.08 34.8742C137.902 30.6635 137.782 26.3232 136.73 22.1642C135.654 17.8163 133.556 13.788 130.61 10.4142C127.616 6.95882 123.847 4.26184 119.61 2.54419C115.54 0.926496 111.159 0.243027 106.79 0.544186C102.651 0.832154 98.6258 2.02705 95 4.04419C88.4878 7.67667 83.6113 13.6622 81.37 20.7742C80.4714 23.801 80.0398 26.9472 80.09 30.1042C80.2179 35.1526 81.6659 40.0794 84.29 44.3942C84.3025 44.4136 84.3091 44.4361 84.3091 44.4592C84.3091 44.4822 84.3025 44.5048 84.29 44.5242L78 55.2642C78.43 54.4942 80.24 51.2142 84.05 44.3542V44.4842C81.3534 40.1484 79.8494 35.1776 79.69 30.0742C79.6285 26.8752 80.0534 23.6855 80.95 20.6142C82.019 17.1985 83.6958 14.004 85.9 11.1842C88.3167 8.09959 91.3257 5.52922 94.75 3.62419C98.4401 1.57228 102.538 0.360116 106.75 0.074192C111.178 -0.239451 115.621 0.443985 119.75 2.07419C124.072 3.80688 127.916 6.55015 130.96 10.0742C133.967 13.5193 136.107 17.6338 137.2 22.0742C138.264 26.3099 138.38 30.7284 137.54 35.0142C136.726 39.0705 135.047 42.9039 132.62 46.2542C128.265 52.3133 121.763 56.4834 114.44 57.9142L111.98 58.2842C111.17 58.3542 110.36 58.3742 109.57 58.4142C108.033 58.4753 106.493 58.3984 104.97 58.1842C99.8795 57.488 95.0652 55.4519 91.02 52.2842L91.21 52.1042C91.2312 52.1294 91.2428 52.1613 91.2428 52.1942C91.2428 52.2271 91.2312 52.259 91.21 52.2842H91.16L78 55.2642Z" fill="#263238"/>
<path d="M101.11 28.6442C101.11 29.1406 100.963 29.6259 100.687 30.0387C100.411 30.4514 100.019 30.7731 99.5605 30.9631C99.1019 31.1531 98.5972 31.2028 98.1103 31.106C97.6234 31.0091 97.1762 30.7701 96.8251 30.419C96.4741 30.068 96.235 29.6208 96.1382 29.1339C96.0413 28.647 96.0911 28.1423 96.281 27.6836C96.471 27.225 96.7927 26.833 97.2055 26.5572C97.6182 26.2814 98.1036 26.1342 98.6 26.1342C99.2657 26.1342 99.9041 26.3986 100.375 26.8693C100.846 27.3401 101.11 27.9785 101.11 28.6442Z" fill="#263238"/>
<path d="M111.14 28.6442C111.14 29.1406 110.993 29.6259 110.717 30.0387C110.441 30.4514 110.049 30.7731 109.591 30.9631C109.132 31.1531 108.627 31.2028 108.14 31.106C107.654 31.0091 107.206 30.77 106.855 30.419C106.504 30.068 106.265 29.6208 106.168 29.1339C106.072 28.647 106.121 28.1423 106.311 27.6836C106.501 27.225 106.823 26.833 107.236 26.5572C107.648 26.2814 108.134 26.1342 108.63 26.1342C108.96 26.1329 109.287 26.1969 109.592 26.3226C109.897 26.4482 110.175 26.6331 110.408 26.8664C110.641 27.0997 110.826 27.377 110.952 27.6821C111.077 27.9872 111.141 28.3142 111.14 28.6442Z" fill="#263238"/>
<path d="M121.15 27.3842C121.399 27.8135 121.516 28.3071 121.485 28.8026C121.454 29.2981 121.276 29.7733 120.975 30.168C120.674 30.5626 120.262 30.8591 119.793 31.0199C119.323 31.1807 118.816 31.1986 118.336 31.0712C117.856 30.9439 117.425 30.6771 117.097 30.3046C116.768 29.9321 116.558 29.4707 116.492 28.9786C116.426 28.4865 116.508 27.9859 116.726 27.5401C116.945 27.0943 117.291 26.7234 117.72 26.4742C118.296 26.1402 118.98 26.0484 119.623 26.2191C120.267 26.3897 120.816 26.8088 121.15 27.3842Z" fill="#263238"/>
<path d="M215.81 277.13C222.497 270.448 230.807 265.62 239.923 263.12C249.04 260.62 258.65 260.534 267.81 262.87C252.291 273.435 233.984 279.154 215.21 279.3" fill="#90B2E6"/>
<path d="M233.45 214.69C231.28 199.37 237.23 182.14 248.7 171C249.08 186.18 242.7 203.27 233.45 214.69Z" fill="#90B2E6"/>
<path d="M224.27 243.62C232.561 227.89 245.749 215.288 261.84 207.72C259.325 216.54 254.506 224.531 247.878 230.871C241.251 237.211 233.053 241.67 224.13 243.79" fill="#90B2E6"/>
<path d="M222.37 249.21C231.63 249.47 240.99 249.14 249.94 246.77C258.89 244.4 267.45 239.86 273.41 232.77C255.284 232.827 237.577 238.233 222.51 248.31" fill="#90B2E6"/>
<path d="M227.07 230.82C222.37 213.22 214.63 201.04 200.79 191.18C199.735 199.834 201.802 208.581 206.619 215.847C211.436 223.113 218.688 228.422 227.07 230.82Z" fill="#90B2E6"/>
<path d="M192.15 261.13C192.118 255.996 193.604 250.967 196.42 246.674C199.236 242.381 203.258 239.015 207.98 237C207.21 246.09 200.07 256.6 192.15 261.13Z" fill="#90B2E6"/>
<path d="M187.73 246.33C187.086 238.962 184.35 231.931 179.845 226.065C175.34 220.2 169.253 215.743 162.3 213.22C165.49 227.92 174 240.22 187.73 246.33Z" fill="#90B2E6"/>
<path d="M194.39 272.67C191.13 268 185.8 265.1 180.29 263.67C174.78 262.24 169.03 262.11 163.29 261.99C167.174 266.197 171.923 269.513 177.21 271.711C182.498 273.908 188.198 274.935 193.92 274.72" fill="#90B2E6"/>
<path d="M201 310.18C190.623 306.991 179.429 307.801 169.62 312.452C159.811 317.103 152.098 325.258 148 335.31C167.27 331.65 186.29 323.1 201.05 310.18" fill="#90B2E6"/>
<path d="M222.15 297.13C218.95 306.6 219.56 318.03 226.68 326.19C228.095 321.309 228.423 316.178 227.64 311.157C226.857 306.136 224.983 301.348 222.15 297.13Z" fill="#90B2E6"/>
<path d="M234.65 291.89C235.168 297.988 237.25 303.849 240.694 308.908C244.137 313.966 248.827 318.052 254.31 320.77C254.564 320.936 254.85 321.048 255.149 321.098C255.449 321.148 255.756 321.135 256.05 321.06C256.92 320.71 256.99 319.52 256.89 318.59C255.49 306.47 246.51 294.74 234.65 291.89Z" fill="#90B2E6"/>
<path d="M242.81 290.66C245.527 293.593 248.818 295.937 252.478 297.547C256.138 299.157 260.089 299.998 264.087 300.019C268.086 300.039 272.046 299.239 275.722 297.667C279.398 296.095 282.713 293.785 285.46 290.88C271.9 289.39 256.26 288.4 242.81 290.66Z" fill="#90B2E6"/>
<path d="M244.84 182.29C244.815 182.427 244.775 182.562 244.72 182.69C244.62 182.97 244.48 183.35 244.31 183.84C243.92 184.84 243.37 186.34 242.67 188.23C241.97 190.12 241.1 192.47 240.13 195.23C239.63 196.59 239.13 198.04 238.56 199.58L236.86 204.48C234.46 211.34 231.79 219.58 228.92 228.76C226.05 237.94 223.12 248.09 220.2 258.76C217.28 269.43 214.76 279.76 212.59 289.11C210.42 298.46 208.66 306.96 207.35 314.11C207.01 315.89 206.69 317.6 206.35 319.21C206.01 320.82 205.81 322.34 205.57 323.77C205.08 326.61 204.66 329.06 204.38 331.08C204.1 333.1 203.83 334.62 203.67 335.71C203.58 336.22 203.52 336.61 203.47 336.91C203.452 337.049 203.422 337.186 203.38 337.32C203.371 337.18 203.371 337.04 203.38 336.9C203.38 336.61 203.46 336.21 203.52 335.69C203.67 334.6 203.87 333.04 204.14 331.05C204.41 329.06 204.78 326.57 205.24 323.72C205.47 322.29 205.72 320.77 205.98 319.15C206.24 317.53 206.58 315.83 206.91 314.04C208.17 306.88 209.96 298.39 212.04 289.04C214.12 279.69 216.74 269.39 219.62 258.67C222.5 247.95 225.53 237.81 228.38 228.62C231.23 219.43 233.99 211.22 236.44 204.37L238.16 199.48L239.77 195.14C240.77 192.43 241.64 190.14 242.4 188.2C243.16 186.26 243.72 184.87 244.13 183.85C244.32 183.37 244.48 183 244.59 182.72L244.84 182.29Z" fill="#263238"/>
<path d="M170.39 221.07L170.62 221.29L171.27 221.97C171.83 222.57 172.66 223.47 173.68 224.67C176.589 228.028 179.262 231.583 181.68 235.31C185.266 240.837 188.069 246.834 190.01 253.13C192.24 260.24 193.63 268.32 195.01 276.76C197.77 293.66 201.15 308.76 203.6 319.76L206.53 332.76C206.87 334.27 207.13 335.45 207.31 336.29C207.39 336.67 207.46 336.98 207.51 337.21C207.525 337.316 207.525 337.424 207.51 337.53C207.467 337.434 207.433 337.333 207.41 337.23C207.35 336.99 207.27 336.69 207.17 336.32L206.3 332.81C205.56 329.72 204.5 325.32 203.2 319.88C200.66 308.95 197.2 293.81 194.46 276.88C193.08 268.44 191.71 260.39 189.46 253.31C187.546 247.032 184.787 241.044 181.26 235.51C178.888 231.775 176.272 228.201 173.43 224.81C172.43 223.6 171.64 222.67 171.1 222.05L170.49 221.33C170.449 221.246 170.416 221.159 170.39 221.07Z" fill="#263238"/>
<path d="M246.86 290.13C246.706 290.187 246.544 290.217 246.38 290.22L244.97 290.38L243.97 290.48L242.77 290.66C241.91 290.78 240.93 290.91 239.86 291.15L238.18 291.48L236.37 291.94C235.12 292.22 233.82 292.68 232.44 293.1C229.481 294.122 226.611 295.387 223.86 296.88C221.127 298.412 218.549 300.203 216.16 302.23C215.107 303.116 214.106 304.061 213.16 305.06C212.332 305.918 211.551 306.819 210.82 307.76C210.203 308.524 209.626 309.318 209.09 310.14C208.657 310.744 208.263 311.376 207.91 312.03L207.19 313.24C207.114 313.388 207.02 313.525 206.91 313.65C206.948 313.487 207.012 313.332 207.1 313.19L207.73 311.93C208.083 311.239 208.481 310.57 208.92 309.93C209.435 309.083 209.996 308.265 210.6 307.48C211.32 306.516 212.095 305.595 212.92 304.72C213.865 303.698 214.866 302.729 215.92 301.82C218.312 299.743 220.912 297.92 223.68 296.38C226.458 294.871 229.363 293.606 232.36 292.6C233.76 292.19 235.07 291.74 236.36 291.47L238.18 291.04L239.88 290.74C240.96 290.52 241.96 290.42 242.82 290.32L244.03 290.18L245.03 290.13L246.44 290.07C246.581 290.077 246.722 290.097 246.86 290.13Z" fill="#263238"/>
<path d="M250.72 221.39C250.424 221.741 250.088 222.056 249.72 222.33L246.92 224.75C244.55 226.75 241.25 229.55 237.59 232.59C233.93 235.63 230.59 238.35 228.16 240.31L225.26 242.6C224.915 242.892 224.547 243.157 224.16 243.39C224.453 243.033 224.789 242.714 225.16 242.44L227.95 240.02C230.32 238.02 233.61 235.23 237.28 232.19C240.95 229.15 244.28 226.43 246.7 224.47L249.6 222.18C249.951 221.887 250.326 221.623 250.72 221.39Z" fill="#263238"/>
<path d="M254.06 239.32C254.06 239.46 246.98 241.68 238.16 244.32C229.34 246.96 222.16 248.93 222.16 248.79C222.16 248.65 229.23 246.43 238.06 243.79C246.89 241.15 254.02 239.19 254.06 239.32Z" fill="#263238"/>
<path d="M227.78 232.19C227.503 231.88 227.255 231.545 227.04 231.19L225.17 228.33C223.57 225.93 221.31 222.64 218.64 219.14C215.97 215.64 213.39 212.6 211.5 210.43C210.6 209.43 209.85 208.54 209.24 207.86C208.939 207.561 208.677 207.225 208.46 206.86C208.795 207.115 209.106 207.399 209.39 207.71C209.97 208.27 210.78 209.11 211.77 210.17C213.77 212.29 216.37 215.31 219.06 218.82C221.351 221.814 223.49 224.922 225.47 228.13C226.23 229.36 226.83 230.37 227.21 231.08C227.44 231.428 227.632 231.8 227.78 232.19Z" fill="#263238"/>
<path d="M203.06 242.13C202.563 243.078 202.005 243.993 201.39 244.87C200.32 246.54 198.88 248.87 197.39 251.49C195.9 254.11 194.63 256.55 193.74 258.32C193.306 259.292 192.801 260.231 192.23 261.13C192.532 260.096 192.927 259.092 193.41 258.13C194.22 256.31 195.41 253.85 196.94 251.21C198.47 248.57 199.94 246.26 201.08 244.64C201.656 243.741 202.319 242.9 203.06 242.13Z" fill="#263238"/>
<path d="M194.6 273.13C194.6 273.2 193.21 272.53 190.98 271.53C188.75 270.53 185.66 269.23 182.15 268C178.64 266.77 175.4 265.86 173.04 265.25C170.68 264.64 169.21 264.32 169.22 264.25C169.576 264.248 169.932 264.285 170.28 264.36C170.96 264.46 171.93 264.65 173.13 264.91C176.245 265.588 179.314 266.46 182.32 267.52C185.333 268.568 188.278 269.8 191.14 271.21C192.24 271.76 193.14 272.21 193.7 272.56C194.027 272.704 194.33 272.896 194.6 273.13Z" fill="#263238"/>
<path d="M201.26 310.24C201.122 310.312 200.973 310.363 200.82 310.39L199.54 310.71L194.81 311.81C189.585 312.898 184.422 314.26 179.34 315.89C174.287 317.58 169.448 319.852 164.92 322.66C163.2 323.76 161.85 324.73 160.92 325.43C160.464 325.815 159.983 326.169 159.48 326.49C159.572 326.363 159.679 326.249 159.8 326.15C160.02 325.95 160.34 325.64 160.8 325.27C162.041 324.223 163.343 323.252 164.7 322.36C169.202 319.419 174.061 317.067 179.16 315.36C184.257 313.723 189.45 312.404 194.71 311.41L199.48 310.48C200.066 310.353 200.661 310.273 201.26 310.24Z" fill="#263238"/>
<path d="M225.33 319.38C225.19 319.38 224.33 314.38 223.44 308.23C222.55 302.08 221.92 297.03 222.06 297C222.2 296.97 223.06 302 223.95 308.16C224.84 314.32 225.48 319.36 225.33 319.38Z" fill="#263238"/>
<path d="M250.4 310.28C249.592 309.435 248.837 308.54 248.14 307.6C246.79 305.91 244.91 303.6 242.79 301.06C240.67 298.52 238.7 296.29 237.27 294.66C236.452 293.822 235.7 292.923 235.02 291.97C235.284 292.147 235.526 292.355 235.74 292.59C236.17 293.01 236.79 293.59 237.54 294.41C239.04 295.98 241.06 298.19 243.19 300.73C245.32 303.27 247.19 305.63 248.43 307.37C249.07 308.25 249.58 308.96 249.92 309.47C250.12 309.714 250.282 309.987 250.4 310.28Z" fill="#263238"/>
<path d="M184.07 333.53V345.91H187.16L198.17 380.66H222.59L233.25 346.26L237.38 345.91V333.53H184.07Z" fill="#455A64"/>
<path d="M235.32 346.26C235.32 346.4 224.54 346.51 211.24 346.51C197.94 346.51 187.16 346.4 187.16 346.26C187.16 346.12 197.94 346 211.24 346C224.54 346 235.32 346.13 235.32 346.26Z" fill="#263238"/>
<path d="M252.92 266.59C252.411 266.769 251.89 266.909 251.36 267.01L247.07 268.01C243.46 268.91 238.5 270.27 233.12 272.07C227.74 273.87 222.97 275.8 219.55 277.27L215.55 279.04C215.067 279.288 214.562 279.489 214.04 279.64C214.493 279.341 214.967 279.077 215.46 278.85C216.38 278.37 217.74 277.71 219.46 276.93C223.854 274.93 228.346 273.155 232.92 271.61C237.516 270.062 242.189 268.754 246.92 267.69C248.74 267.28 250.22 266.99 251.25 266.81C251.798 266.682 252.357 266.608 252.92 266.59Z" fill="#263238"/>
<path d="M227.21 365.55C227.21 365.69 219.65 365.81 210.32 365.81C200.99 365.81 193.43 365.69 193.43 365.55C193.43 365.41 200.99 365.29 210.32 365.29C219.65 365.29 227.21 365.41 227.21 365.55Z" fill="#FAFAFA"/>
<path d="M228.16 362.68C228.16 362.82 220.16 362.94 210.26 362.94C200.36 362.94 192.36 362.82 192.36 362.68C192.36 362.54 200.36 362.42 210.26 362.42C220.16 362.42 228.16 362.54 228.16 362.68Z" fill="#FAFAFA"/>
</g>
<defs>
<clipPath id="clip0_12_660">
<rect width="286" height="395" fill="white"/>
</clipPath>
</defs>
</svg>
