<svg width="25" height="25" viewBox="0 0 25 25" fill="none" xmlns="http://www.w3.org/2000/svg">
<g clip-path="url(#clip0_5_16)">
<path d="M12.5 0C5.60729 0 0 5.60729 0 12.5C0 19.3927 5.60729 25 12.5 25C15.049 25 17.4927 24.2479 19.5656 22.825C19.8031 22.6625 19.8635 22.3385 19.7 22.101C19.5375 21.8625 19.2146 21.8031 18.976 21.9667C17.0771 23.2698 14.8375 23.9583 12.5 23.9583C6.18229 23.9583 1.04167 18.8177 1.04167 12.5C1.04167 6.18229 6.18229 1.04167 12.5 1.04167C18.8177 1.04167 23.9583 6.18229 23.9583 12.5V15.1042C23.9583 16.5396 22.7896 17.7083 21.3542 17.7083C19.9187 17.7083 18.75 16.5396 18.75 15.1042V12.5C18.75 9.05312 15.9469 6.25 12.5 6.25C9.05312 6.25 6.25 9.05312 6.25 12.5C6.25 15.9469 9.05312 18.75 12.5 18.75C14.7198 18.75 16.6729 17.5865 17.7823 15.8375C18.1229 17.4979 19.5948 18.75 21.3542 18.75C23.3646 18.75 25 17.1146 25 15.1042V12.5C25 5.60729 19.3927 0 12.5 0ZM12.5 17.7083C9.62812 17.7083 7.29167 15.3719 7.29167 12.5C7.29167 9.62812 9.62812 7.29167 12.5 7.29167C15.3719 7.29167 17.7083 9.62812 17.7083 12.5C17.7083 15.3719 15.3719 17.7083 12.5 17.7083Z" fill="#858585"/>
</g>
<defs>
<clipPath id="clip0_5_16">
<rect width="25" height="25" fill="white"/>
</clipPath>
</defs>
</svg>
