<svg width="23" height="27" viewBox="0 0 23 27" fill="none" xmlns="http://www.w3.org/2000/svg">
<path d="M18.2292 0H6.77083C4.73333 0 2.99583 1.40019 2.35104 3.34974H0.520833C0.233333 3.34974 0 3.59986 0 3.90803C0 4.21621 0.233333 4.46632 0.520833 4.46632H2.1125C2.09375 4.64944 2.08333 4.83591 2.08333 5.02461V7.81607H0.520833C0.233333 7.81607 0 8.06618 0 8.37436C0 8.68253 0.233333 8.93265 0.520833 8.93265H2.08333V12.8407H0.520833C0.233333 12.8407 0 13.0908 0 13.399C0 13.7071 0.233333 13.9573 0.520833 13.9573H2.08333V17.8653H0.520833C0.233333 17.8653 0 18.1154 0 18.4236C0 18.7318 0.233333 18.9819 0.520833 18.9819H2.08333V21.7733C2.08333 21.962 2.09375 22.1485 2.1125 22.3316H0.520833C0.233333 22.3316 0 22.5817 0 22.8899C0 23.1981 0.233333 23.4482 0.520833 23.4482H2.35104C2.99583 25.3978 4.73333 26.7979 6.77083 26.7979H18.2292C20.8135 26.7979 22.9167 24.5436 22.9167 21.7733V5.02461C22.9167 2.25438 20.8135 0 18.2292 0ZM21.875 21.7733C21.875 23.9283 20.2396 25.6814 18.2292 25.6814H6.77083C4.76042 25.6814 3.125 23.9283 3.125 21.7733V5.02461C3.125 2.86961 4.76042 1.11658 6.77083 1.11658H18.2292C20.2396 1.11658 21.875 2.86961 21.875 5.02461V21.7733ZM12.5 13.399C14.2229 13.399 15.625 11.8961 15.625 10.0492C15.625 8.2024 14.2229 6.69949 12.5 6.69949C10.7771 6.69949 9.375 8.2024 9.375 10.0492C9.375 11.8961 10.7771 13.399 12.5 13.399ZM12.5 7.81607C13.649 7.81607 14.5833 8.81764 14.5833 10.0492C14.5833 11.2808 13.649 12.2824 12.5 12.2824C11.351 12.2824 10.4167 11.2808 10.4167 10.0492C10.4167 8.81764 11.351 7.81607 12.5 7.81607ZM17.7083 20.0985V20.6567C17.7083 20.9649 17.475 21.215 17.1875 21.215C16.9 21.215 16.6667 20.9649 16.6667 20.6567V20.0985C16.6667 17.6353 14.7979 15.6321 12.5 15.6321C10.2021 15.6321 8.33333 17.6353 8.33333 20.0985V20.6567C8.33333 20.9649 8.1 21.215 7.8125 21.215C7.525 21.215 7.29167 20.9649 7.29167 20.6567V20.0985C7.29167 17.02 9.62813 14.5156 12.5 14.5156C15.3719 14.5156 17.7083 17.02 17.7083 20.0985Z" fill="#858585"/>
</svg>
