<svg width="25" height="25" viewBox="0 0 25 25" fill="none" xmlns="http://www.w3.org/2000/svg">
<g clip-path="url(#clip0_5_18)">
<path d="M19.7916 8.77499V7.29166C19.7916 5.35779 19.0234 3.50313 17.656 2.13567C16.2885 0.768222 14.4339 -5.48363e-06 12.5 -5.48363e-06C10.5661 -5.48363e-06 8.71145 0.768222 7.34399 2.13567C5.97654 3.50313 5.20831 5.35779 5.20831 7.29166V8.77499C4.28056 9.1799 3.49091 9.84637 2.93592 10.6929C2.38092 11.5395 2.08464 12.5294 2.08331 13.5417V19.7917C2.08497 21.1725 2.63423 22.4963 3.61063 23.4727C4.58702 24.4491 5.91082 24.9983 7.29165 25H17.7083C19.0891 24.9983 20.4129 24.4491 21.3893 23.4727C22.3657 22.4963 22.915 21.1725 22.9166 19.7917V13.5417C22.9153 12.5294 22.619 11.5395 22.064 10.6929C21.5091 9.84637 20.7194 9.1799 19.7916 8.77499ZM7.29165 7.29166C7.29165 5.91033 7.84038 4.58557 8.81713 3.60881C9.79388 2.63206 11.1186 2.08333 12.5 2.08333C13.8813 2.08333 15.2061 2.63206 16.1828 3.60881C17.1596 4.58557 17.7083 5.91033 17.7083 7.29166V8.33333H7.29165V7.29166ZM20.8333 19.7917C20.8333 20.6205 20.5041 21.4153 19.918 22.0014C19.332 22.5874 18.5371 22.9167 17.7083 22.9167H7.29165C6.46285 22.9167 5.66799 22.5874 5.08194 22.0014C4.49589 21.4153 4.16665 20.6205 4.16665 19.7917V13.5417C4.16665 12.7129 4.49589 11.918 5.08194 11.332C5.66799 10.7459 6.46285 10.4167 7.29165 10.4167H17.7083C18.5371 10.4167 19.332 10.7459 19.918 11.332C20.5041 11.918 20.8333 12.7129 20.8333 13.5417V19.7917Z" fill="#858585"/>
<path d="M12.5 14.5833C12.2237 14.5833 11.9588 14.6931 11.7634 14.8884C11.5681 15.0838 11.4583 15.3487 11.4583 15.625V17.7083C11.4583 17.9846 11.5681 18.2496 11.7634 18.4449C11.9588 18.6403 12.2237 18.75 12.5 18.75C12.7762 18.75 13.0412 18.6403 13.2365 18.4449C13.4319 18.2496 13.5416 17.9846 13.5416 17.7083V15.625C13.5416 15.3487 13.4319 15.0838 13.2365 14.8884C13.0412 14.6931 12.7762 14.5833 12.5 14.5833Z" fill="#858585"/>
</g>
<defs>
<clipPath id="clip0_5_18">
<rect width="25" height="25" fill="white"/>
</clipPath>
</defs>
</svg>
