<svg width="20" height="20" viewBox="0 0 20 20" fill="none" xmlns="http://www.w3.org/2000/svg">
<g clip-path="url(#clip0_14_810)">
<path d="M11.1784 9.99497L19.756 1.41732C20.0757 1.08629 20.0666 0.558707 19.7356 0.238975C19.4126 -0.0729445 18.9006 -0.0729445 18.5777 0.238975L9.99998 8.81662L1.42233 0.238975C1.09127 -0.0807571 0.563721 -0.0715773 0.243989 0.259444C-0.0679309 0.582379 -0.0679309 1.09438 0.243989 1.41732L8.82164 9.99497L0.243989 18.5726C-0.0813295 18.8981 -0.0813295 19.4256 0.243989 19.751C0.569424 20.0763 1.09693 20.0763 1.42233 19.751L9.99998 11.1733L18.5776 19.751C18.9031 20.0763 19.4306 20.0763 19.756 19.751C20.0813 19.4255 20.0813 18.898 19.756 18.5726L11.1784 9.99497Z" fill="#858585"/>
</g>
<defs>
<clipPath id="clip0_14_810">
<rect width="20" height="20" fill="white"/>
</clipPath>
</defs>
</svg>
