<svg width="25" height="25" viewBox="0 0 25 25" fill="none" xmlns="http://www.w3.org/2000/svg">
<g clip-path="url(#clip0_23_50)">
<path d="M16.1458 6.25H16.1427L8.85104 6.25521C6.84167 6.25521 5.20833 7.89167 5.20833 9.90104V14.0656C5.20833 15.0396 5.5875 15.9552 6.27604 16.6427C6.96354 17.3292 7.87812 17.7073 8.85208 17.7073H16.1479C18.1573 17.7073 19.7917 16.0708 19.7917 14.0615V9.89479C19.7917 8.91979 19.4125 8.00417 18.7229 7.31562C18.0344 6.62812 17.1198 6.25 16.1458 6.25ZM16.1427 7.29167H16.1458C16.7917 7.29167 17.4021 7.52604 17.8792 7.95312L13.9062 11.9271C13.1594 12.674 11.8583 12.674 11.1115 11.9271L7.13333 7.94896C7.59167 7.54479 8.19271 7.29792 8.85104 7.29792L16.1427 7.29167ZM18.75 14.0625C18.75 15.4979 17.5823 16.6656 16.1479 16.6667H8.85208C8.15729 16.6667 7.50312 16.3969 7.01146 15.9062C6.51979 15.4156 6.25 14.7615 6.25 14.0656V9.90104C6.25 9.50313 6.33958 9.12604 6.5 8.78854L10.375 12.6635C10.9458 13.2333 11.7031 13.5479 12.5094 13.5479C13.3156 13.5479 14.0729 13.2344 14.6427 12.6635L18.5083 8.79792C18.6667 9.1375 18.75 9.51042 18.75 9.89688V14.0635V14.0625ZM12.5 0C5.60729 0 0 5.60729 0 12.5C0 19.3927 5.60729 25 12.5 25C19.3927 25 25 19.3927 25 12.5C25 5.60729 19.3927 0 12.5 0ZM12.5 23.9583C6.18229 23.9583 1.04167 18.8177 1.04167 12.5C1.04167 6.18229 6.18229 1.04167 12.5 1.04167C18.8177 1.04167 23.9583 6.18229 23.9583 12.5C23.9583 18.8177 18.8177 23.9583 12.5 23.9583Z" fill="#464646"/>
</g>
<defs>
<clipPath id="clip0_23_50">
<rect width="25" height="25" fill="white"/>
</clipPath>
</defs>
</svg>
