<svg width="25" height="25" viewBox="0 0 25 25" fill="none" xmlns="http://www.w3.org/2000/svg">
<g clip-path="url(#clip0_32_280)">
<path d="M23.7801 9.55422L19.7395 5.5136C19.543 5.32385 19.2799 5.21886 19.0068 5.22123C18.7337 5.2236 18.4724 5.33316 18.2793 5.52629C18.0861 5.71942 17.9766 5.98069 17.9742 6.25381C17.9718 6.52693 18.0768 6.79006 18.2666 6.98652L22.3072 11.0271C22.4272 11.1496 22.5322 11.286 22.6197 11.4334C22.6041 11.4334 22.5916 11.4251 22.5759 11.4251L6.23844 11.4584C5.96218 11.4584 5.69723 11.5681 5.50187 11.7635C5.30652 11.9588 5.19678 12.2238 5.19678 12.5001C5.19678 12.7763 5.30652 13.0413 5.50187 13.2366C5.69723 13.432 5.96218 13.5417 6.23844 13.5417L22.5697 13.5084C22.5989 13.5084 22.6228 13.4938 22.6509 13.4917C22.5585 13.6679 22.4414 13.83 22.303 13.973L18.2624 18.0136C18.1629 18.1097 18.0836 18.2246 18.029 18.3517C17.9744 18.4788 17.9456 18.6155 17.9444 18.7538C17.9432 18.8921 17.9696 19.0293 18.022 19.1573C18.0743 19.2853 18.1517 19.4016 18.2495 19.4994C18.3473 19.5972 18.4636 19.6746 18.5916 19.727C18.7196 19.7793 18.8568 19.8057 18.9951 19.8045C19.1334 19.8033 19.2701 19.7745 19.3972 19.72C19.5243 19.6654 19.6392 19.586 19.7353 19.4865L23.7759 15.4459C24.5571 14.6645 24.9959 13.6049 24.9959 12.5001C24.9959 11.3952 24.5571 10.3356 23.7759 9.55422H23.7801Z" fill="#858585"/>
<path d="M7.29167 22.9167H5.20833C4.37953 22.9167 3.58468 22.5874 2.99863 22.0014C2.41257 21.4153 2.08333 20.6205 2.08333 19.7917V5.20833C2.08333 4.37953 2.41257 3.58468 2.99863 2.99862C3.58468 2.41257 4.37953 2.08333 5.20833 2.08333H7.29167C7.56793 2.08333 7.83289 1.97359 8.02824 1.77824C8.22359 1.58289 8.33333 1.31793 8.33333 1.04167C8.33333 0.765399 8.22359 0.500448 8.02824 0.305097C7.83289 0.109747 7.56793 0 7.29167 0L5.20833 0C3.82751 0.00165402 2.50371 0.550919 1.52731 1.52731C0.550919 2.50371 0.00165402 3.82751 0 5.20833L0 19.7917C0.00165402 21.1725 0.550919 22.4963 1.52731 23.4727C2.50371 24.4491 3.82751 24.9983 5.20833 25H7.29167C7.56793 25 7.83289 24.8903 8.02824 24.6949C8.22359 24.4996 8.33333 24.2346 8.33333 23.9583C8.33333 23.6821 8.22359 23.4171 8.02824 23.2218C7.83289 23.0264 7.56793 22.9167 7.29167 22.9167Z" fill="#858585"/>
</g>
<defs>
<clipPath id="clip0_32_280">
<rect width="25" height="25" fill="white"/>
</clipPath>
</defs>
</svg>
