<svg width="25" height="25" viewBox="0 0 25 25" fill="none" xmlns="http://www.w3.org/2000/svg">
<g clip-path="url(#clip0_40_2)">
<path d="M17.7084 8.33333H7.29171V7.29167C7.29139 6.13688 7.67486 5.01473 8.38183 4.10164C9.0888 3.18855 10.0792 2.53631 11.1973 2.24746C12.3153 1.9586 13.4977 2.04952 14.5585 2.50592C15.6193 2.96232 16.4983 3.75831 17.0573 4.76875C17.1237 4.88838 17.2131 4.99375 17.3202 5.07886C17.4273 5.16396 17.5502 5.22713 17.6817 5.26476C17.8133 5.30238 17.951 5.31373 18.0869 5.29815C18.2228 5.28257 18.3544 5.24037 18.474 5.17396C18.5936 5.10755 18.699 5.01822 18.7841 4.91108C18.8692 4.80395 18.9324 4.6811 18.97 4.54955C19.0076 4.418 19.019 4.28032 19.0034 4.14439C18.9878 4.00845 18.9456 3.87692 18.8792 3.75729C18.0962 2.34304 16.8654 1.22908 15.3803 0.590536C13.8952 -0.0480121 12.24 -0.174947 10.6749 0.229684C9.10981 0.634314 7.72355 1.54757 6.73403 2.82589C5.74451 4.10421 5.20784 5.67511 5.20837 7.29167V8.775C4.28062 9.1799 3.49097 9.84638 2.93598 10.6929C2.38098 11.5395 2.08471 12.5294 2.08337 13.5417V19.7917C2.08503 21.1725 2.63429 22.4963 3.61069 23.4727C4.58708 24.4491 5.91088 24.9983 7.29171 25H17.7084C19.0892 24.9983 20.413 24.4491 21.3894 23.4727C22.3658 22.4963 22.9151 21.1725 22.9167 19.7917V13.5417C22.9151 12.1608 22.3658 10.837 21.3894 9.86065C20.413 8.88425 19.0892 8.33499 17.7084 8.33333ZM20.8334 19.7917C20.8334 20.6205 20.5041 21.4153 19.9181 22.0014C19.332 22.5874 18.5372 22.9167 17.7084 22.9167H7.29171C6.46291 22.9167 5.66805 22.5874 5.082 22.0014C4.49595 21.4153 4.16671 20.6205 4.16671 19.7917V13.5417C4.16671 12.7129 4.49595 11.918 5.082 11.332C5.66805 10.7459 6.46291 10.4167 7.29171 10.4167H17.7084C18.5372 10.4167 19.332 10.7459 19.9181 11.332C20.5041 11.918 20.8334 12.7129 20.8334 13.5417V19.7917Z" fill="#858585"/>
<path d="M12.5 14.5833C12.2238 14.5833 11.9588 14.6931 11.7635 14.8884C11.5681 15.0838 11.4584 15.3487 11.4584 15.625V17.7083C11.4584 17.9846 11.5681 18.2496 11.7635 18.4449C11.9588 18.6403 12.2238 18.75 12.5 18.75C12.7763 18.75 13.0413 18.6403 13.2366 18.4449C13.432 18.2496 13.5417 17.9846 13.5417 17.7083V15.625C13.5417 15.3487 13.432 15.0838 13.2366 14.8884C13.0413 14.6931 12.7763 14.5833 12.5 14.5833Z" fill="#858585"/>
</g>
<defs>
<clipPath id="clip0_40_2">
<rect width="25" height="25" fill="white"/>
</clipPath>
</defs>
</svg>
