<svg width="40" height="40" viewBox="0 0 40 40" fill="none" xmlns="http://www.w3.org/2000/svg">
<g clip-path="url(#clip0_23_253)">
<path d="M36.8917 15.12L5.60505 0.403307C4.15005 -0.306693 2.49838 -0.0750265 1.29505 1.00997C0.0900505 2.09664 -0.313283 3.71664 0.293384 5.34497L8.10672 20.0033L0.388384 34.7666C-0.166616 36.29 0.238384 37.91 1.44672 38.9933C2.18838 39.66 3.10172 40.0016 4.03005 40.0016C4.61172 40.0016 5.19672 39.8683 5.75338 39.595L36.8967 24.8916C38.8117 23.9933 40.0017 22.1183 40 20C40 17.8833 38.805 16.0133 36.8917 15.12ZM1.81172 4.66664C1.43005 3.62664 1.87005 2.73664 2.41005 2.24997C2.76672 1.92997 3.29172 1.66831 3.89672 1.66831C4.20838 1.66831 4.54005 1.73831 4.88005 1.90497C4.88338 1.90497 4.88838 1.90831 4.89172 1.90997L36.1834 16.63C37.2667 17.1366 37.9984 18.0533 38.2434 19.1666H9.54838L1.81172 4.66664ZM36.1851 23.385L5.03005 38.095C4.03505 38.58 3.10338 38.2383 2.56172 37.7533C2.02005 37.2683 1.57672 36.3783 1.91172 35.4366L9.55338 20.8316H38.2467C38.0067 21.95 37.2734 22.8733 36.1851 23.3833V23.385Z" fill="#90B2E6"/>
</g>
<defs>
<clipPath id="clip0_23_253">
<rect width="40" height="40" fill="white"/>
</clipPath>
</defs>
</svg>
