<svg width="25" height="25" viewBox="0 0 25 25" fill="none" xmlns="http://www.w3.org/2000/svg">
<g clip-path="url(#clip0_23_46)">
<path d="M12.5 25C5.60729 25 0 19.3927 0 12.5C0 5.60729 5.60729 0 12.5 0C19.3927 0 25 5.60729 25 12.5C25 19.3927 19.3927 25 12.5 25ZM12.5 1.04167C6.18229 1.04167 1.04167 6.18229 1.04167 12.5C1.04167 18.8177 6.18229 23.9583 12.5 23.9583C18.8177 23.9583 23.9583 18.8177 23.9583 12.5C23.9583 6.18229 18.8177 1.04167 12.5 1.04167ZM16.0458 19.7917C11.3865 19.7917 5.20833 13.6125 5.20833 8.95312C5.20833 7.94896 5.58854 7.01667 6.27812 6.32708L6.98125 5.71354C7.6125 5.07708 8.83229 5.05417 9.51562 5.7375L10.6885 7.25729C10.9865 7.54792 11.175 8.00208 11.175 8.48646C11.175 8.97083 10.9865 9.425 10.6438 9.76667L9.91562 10.6865C10.8292 12.7927 12.2698 14.2375 14.3073 15.0875L15.2552 14.3323C15.9615 13.65 17.0938 13.6552 17.7938 14.3542L19.2115 15.4375C19.9688 16.1885 19.9688 17.3375 19.2625 18.0427L18.6969 18.6937C17.9833 19.4104 17.051 19.7896 16.0469 19.7896L16.0458 19.7917ZM8.23438 6.25C8.03021 6.25 7.83646 6.33021 7.69167 6.475L6.98854 7.08854C6.52187 7.55625 6.25 8.22708 6.25 8.95312C6.25 13.2771 12.324 18.75 16.0458 18.75C16.7708 18.75 17.4427 18.4781 17.9344 17.9854L18.5 17.3344C18.825 17.0094 18.824 16.5208 18.524 16.2208L17.1063 15.1375C16.7552 14.7927 16.2667 14.7927 15.9677 15.0927L14.4844 16.2771L14.2062 16.1708C11.6833 15.2073 9.875 13.4 8.83125 10.799L8.71875 10.5177L9.86667 9.07396C10.0521 8.88438 10.1323 8.69167 10.1323 8.48646C10.1323 8.28125 10.0521 8.08854 9.90625 7.94375L8.73333 6.42396C8.63229 6.32917 8.43958 6.25 8.23438 6.25Z" fill="#464646"/>
</g>
<defs>
<clipPath id="clip0_23_46">
<rect width="25" height="25" fill="white"/>
</clipPath>
</defs>
</svg>
