<svg width="25" height="25" viewBox="0 0 25 25" fill="none" xmlns="http://www.w3.org/2000/svg">
<g clip-path="url(#clip0_32_295)">
<path d="M23.9584 11.4584H21.8751V9.37504C21.8751 9.09877 21.7653 8.83382 21.57 8.63847C21.3746 8.44312 21.1097 8.33337 20.8334 8.33337C20.5571 8.33337 20.2922 8.44312 20.0968 8.63847C19.9015 8.83382 19.7917 9.09877 19.7917 9.37504V11.4584H17.7084C17.4321 11.4584 17.1672 11.5681 16.9718 11.7635C16.7765 11.9588 16.6667 12.2238 16.6667 12.5C16.6667 12.7763 16.7765 13.0413 16.9718 13.2366C17.1672 13.432 17.4321 13.5417 17.7084 13.5417H19.7917V15.625C19.7917 15.9013 19.9015 16.1663 20.0968 16.3616C20.2922 16.557 20.5571 16.6667 20.8334 16.6667C21.1097 16.6667 21.3746 16.557 21.57 16.3616C21.7653 16.1663 21.8751 15.9013 21.8751 15.625V13.5417H23.9584C24.2347 13.5417 24.4996 13.432 24.695 13.2366C24.8903 13.0413 25.0001 12.7763 25.0001 12.5C25.0001 12.2238 24.8903 11.9588 24.695 11.7635C24.4996 11.5681 24.2347 11.4584 23.9584 11.4584Z" fill="#858585"/>
<path d="M9.375 12.4999C10.6111 12.4999 11.8195 12.1333 12.8473 11.4466C13.8751 10.7598 14.6762 9.78369 15.1492 8.64165C15.6223 7.49961 15.7461 6.24295 15.5049 5.03057C15.2638 3.81819 14.6685 2.70454 13.7944 1.83046C12.9203 0.956385 11.8067 0.36113 10.5943 0.119973C9.38193 -0.121185 8.12527 0.00258597 6.98323 0.475634C5.84119 0.948681 4.86507 1.74976 4.17832 2.77757C3.49156 3.80537 3.125 5.01375 3.125 6.24988C3.12665 7.90698 3.78567 9.49573 4.95741 10.6675C6.12915 11.8392 7.71791 12.4982 9.375 12.4999ZM9.375 2.08321C10.1991 2.08321 11.0047 2.32758 11.6899 2.78542C12.3751 3.24326 12.9091 3.89401 13.2245 4.65537C13.5399 5.41673 13.6224 6.2545 13.4616 7.06276C13.3008 7.87101 12.904 8.61344 12.3213 9.19616C11.7386 9.77888 10.9961 10.1757 10.1879 10.3365C9.37962 10.4973 8.54184 10.4147 7.78049 10.0994C7.01913 9.78401 6.36838 9.24996 5.91054 8.56476C5.4527 7.87955 5.20833 7.07397 5.20833 6.24988C5.20833 5.14481 5.64732 4.085 6.42872 3.3036C7.21012 2.5222 8.26993 2.08321 9.375 2.08321Z" fill="#858585"/>
<path d="M9.375 14.5834C6.88944 14.5861 4.50647 15.5747 2.74892 17.3323C0.991363 19.0898 0.00275714 21.4728 0 23.9584C0 24.2346 0.109747 24.4996 0.305097 24.6949C0.500448 24.8903 0.765399 25 1.04167 25C1.31793 25 1.58289 24.8903 1.77824 24.6949C1.97359 24.4996 2.08333 24.2346 2.08333 23.9584C2.08333 22.0245 2.85156 20.1698 4.21901 18.8024C5.58647 17.4349 7.44113 16.6667 9.375 16.6667C11.3089 16.6667 13.1635 17.4349 14.531 18.8024C15.8984 20.1698 16.6667 22.0245 16.6667 23.9584C16.6667 24.2346 16.7764 24.4996 16.9718 24.6949C17.1671 24.8903 17.4321 25 17.7083 25C17.9846 25 18.2496 24.8903 18.4449 24.6949C18.6403 24.4996 18.75 24.2346 18.75 23.9584C18.7472 21.4728 17.7586 19.0898 16.0011 17.3323C14.2435 15.5747 11.8606 14.5861 9.375 14.5834Z" fill="#858585"/>
</g>
<defs>
<clipPath id="clip0_32_295">
<rect width="25" height="25" fill="white"/>
</clipPath>
</defs>
</svg>
