<svg width="25" height="25" viewBox="0 0 25 25" fill="none" xmlns="http://www.w3.org/2000/svg">
<g clip-path="url(#clip0_23_26)">
<path d="M9.375 12.5C12.8219 12.5 15.625 9.69687 15.625 6.25C15.625 2.80312 12.8219 0 9.375 0C5.92812 0 3.125 2.80312 3.125 6.25C3.125 9.69687 5.92812 12.5 9.375 12.5ZM9.375 1.04167C12.2469 1.04167 14.5833 3.37812 14.5833 6.25C14.5833 9.12187 12.2469 11.4583 9.375 11.4583C6.50312 11.4583 4.16667 9.12187 4.16667 6.25C4.16667 3.37812 6.50312 1.04167 9.375 1.04167ZM13.299 16.6042C12.1 15.9635 10.7427 15.625 9.375 15.625C4.78021 15.625 1.04167 19.3635 1.04167 23.9583V24.4792C1.04167 24.7667 0.808333 25 0.520833 25C0.233333 25 0 24.7667 0 24.4792V23.9583C0 18.7896 4.20625 14.5833 9.375 14.5833C10.9146 14.5833 12.4406 14.9646 13.7906 15.6865C14.0448 15.8219 14.1396 16.1375 14.0042 16.3917C13.8687 16.6458 13.5531 16.7396 13.299 16.6052V16.6042ZM24.2365 12.2208C23.2542 11.2375 21.5365 11.2375 20.5542 12.2208L12.526 20.249C11.8375 20.9375 11.4583 21.8531 11.4583 22.8271V24.4792C11.4583 24.7667 11.6917 25 11.9792 25H13.6313C14.6052 25 15.5208 24.6208 16.2094 23.9323L24.2375 15.9042C24.7292 15.4125 25 14.7583 25 14.0625C25 13.3667 24.7281 12.7125 24.2365 12.2208ZM23.5 15.1667L15.4719 23.1948C14.9802 23.6865 14.326 23.9573 13.6302 23.9573H12.499V22.826C12.499 22.1302 12.7698 21.4771 13.2615 20.9844L21.2896 12.9562C21.8792 12.3667 22.9094 12.3667 23.499 12.9562C23.7937 13.251 23.9562 13.6437 23.9562 14.0615C23.9562 14.4792 23.7948 14.8708 23.5 15.1667Z" fill="#858585"/>
</g>
<defs>
<clipPath id="clip0_23_26">
<rect width="25" height="25" fill="white"/>
</clipPath>
</defs>
</svg>
